<mxfile host="app.diagrams.net" modified="2023-10-20T15:36:50.623Z" agent="Mozilla/5.0 (Windows NT 10.0; Win64; x64) AppleWebKit/537.36 (KHTML, like Gecko) Chrome/118.0.0.0 Safari/537.36" etag="kG3PmrN5UghLEYfx5IkT" version="22.0.6" type="device">
  <diagram name="Page-1" id="-zYwuS8st90Cl9seF5sk">
    <mxGraphModel dx="1296" dy="798" grid="1" gridSize="10" guides="1" tooltips="1" connect="1" arrows="1" fold="1" page="1" pageScale="1" pageWidth="827" pageHeight="583" math="0" shadow="0">
      <root>
        <mxCell id="0" />
        <mxCell id="1" parent="0" />
        <mxCell id="bDyjh2r6DxuN5JzGMPox-1" value="" style="shape=image;verticalLabelPosition=bottom;labelBackgroundColor=default;verticalAlign=top;aspect=fixed;imageAspect=0;image=data:image/png,iVBORw0KGgoAAAANSUhEUgAAAOEAAADhCAMAAAAJbSJIAAAAwFBMVEX///9MnkUjHyAAAAAgHB0bFhcGAAAZFBX7+/ssKCldWltXVFXx8PGysbIfGhsQCQt0cnOUkpOsqqs/mTfFxMQzMDE7OTnf3t7Q0NCGhISmpaXm5uZFQkL09PTMy8tHnEC9vLxsamuNjIxMSUp8e3uFuoE6lzGcm5vX19e21bT1+vXd7NybxZjj4uN7tXdjYWGMvojp8uimzKPI4MZwsGtYpFGy0q9iqVxUoU3S5NGVwpE4NTZ8tnjj7+LA274tkyJ5ShS0AAAMq0lEQVR4nO2bCXuiyhJAW1vZFRTcQBDEKGNizDbJzTWZ+///1esqQFEgJjMhxnl9vreMQMc+9FZdICEcDofD4XA4HA6Hw+FwOBwOh8PhcDgcDofD4XA4HA6Hw+FwOBwOh8PhcDgcDofD4XA4HA7njHi9PHUNqubm4tQ1qJilaS5PXYdq+WGaP05dh2p5mkweTl2HSnk1a7X5X91NH5mh+evUtaiSh0mtNnl54wLpzBv4tgb8U3RqeX938TQxz32qfTbB0Mwt+rePD3PTnEzg7Hkb3sWGBwPx8oLZ1RJ+lpUdDD1g6FRdyT/iAkUm/2aPLW92euzcU2HBoSHrFBGam46bHHXXagbFsKNMkQCOhV78YarmCO0KBJc/Y8Psivg8yfixc0VBnRZQsV1PaLR12kqO62IzgyjQvrUtVIdz6ZWq3jxEmFVhaCY9cTfWfpi1PczHfDGnr9f3aNBFbCg29k/U23SUlpLhnJAYKs36IWIVhpfzROO2TLA2L9h6hGKuetQqNmRn0oqfxPCXeaDxPD8QrJn5UgsaN5wuwDCMbdt6xrDRRhLbtGMWGSZXInoVho+JoXkff76dHAruT0IxOlZd7E19RisQYo/p1rAh9xGZ4lhtb6RSw36GXqcCw7vUMNleXOQMCzqph00oqukE2mWfG0K9tTUULMkFNF9u73pwgaE+ii9MqECQ/JsYmXf48flwENaK9h0LHbuXtj0wEwR9gfWLDekwPTPA5tZHZYZVtNo+F/uG17kmNJ/zhWZgKBq7A5q8kJJ/HRiSKVzbVPHfJzFMlSZX8Ok1N80ULoaGuGuXA3KGFvTodh9vwDcwvMt30tuCQh82bPROZ/iyZ/hPbpq5Lyr0EUMbeml7fDrDi6zh7WETJqPzkA8YujiZJmP2JIZ7c+n9Ybx2VVzouGEab0dx8FO+WlRvuF0PIfi82jecFwSkyFHD9lhBQr0Zr5zxybxho6dsUVefr0d2USjGNC/ZtcKsFawTMUcN6+14sxDvPhpCUveCmKax21lkBu9ncp+NSx92hhPz3/Kd/c7Qbe3oaqQ48haTHeGRyLsiw9t5ZlV4Sqcd07x5faPQzjCiwhYcbAWGjWYa/JzEcJk4PS1xN8wwzfnDj7czMxnDzDYxa9hIwBPNvlRu2NhSkWGy5GPosnz6+fRw81g6/N5v2JB7SF3AkSiMyg17W9pR2ff9GfH8WbLwlXDUULCIBGh+D2dMPc5VFe0t4guRTzZLKcsmvkV2HGIqqnFguOtwK9wFC3GK4yTrIRt8YFiaMCxkZyhhOtGvN8oMSeeke4vl5Y+7mzgWfXp6uL65evx1uXxHZzlcD6VeuWEceW9OEZfePl7X5tu87ySeRs25+fRy91y0ochwaOi+YeidyvD5emLmdruJq2nWnq7emlFzhnK5oX+a/eHrw7xYL6t5U7hzAkY4ttbbzw7mbahXZBjA3RDja7/O8I75Ybd8U3Myr10VRzZdTK4JWw00rtNd1LYzbOGl+vRrDV/mE3P+dH1zc/00L+mqCab5UrSMRNhmjXqSr18kH8nWULejISOyjDjvmBh/leHDfP5yn4Rly/uXt/vrxHwocNxgqNLQ++sgUHrxqh+veUnUpiehapwsbobkKw0v5jd7U+Xy6lhnfclNrVac8663RVFMtkhtOZNN3KeRboi/xvDXJDdL3r7kElAH7Xh3uEjOaM4i7rJFewvaJV9p+FC0bfh1ZGo1nw67qkH3TJrUJ8WGDV3300KnidpiXv85snrkHrG12lRsw6an3W7qNBwkh7XMhhEGolDv7HL1IpzcPj/ED9Mv0QOWD2/31Nr85qCE5BvhBnY9fXW62/dIrW6GlrW3I/LhmJ08E7fwQ0U7pkKujyiaBW+kuBqjql3P53NU8frUNfxjLo4pHnbU8+PIqlGbn/87jMc66vzItuoMOLb2n/9QJDdvKxY9Lz037nIPSf+2RjwSwZnnPxIJufz5huLHEqvfleUbC+Pf8kr4r1qpY/qG1GA4xGhb07IFnVwI5zrp/zPiIHyYu0iCctE7XqfRPi2OXd6UjcY5pm40FXLda1avsZopFqWbqB2dJKNvwxtiYsAsWslLfhladMDKBsfrFdDPC9VfX4pTOPHrYSFtOasF7H2OGgqJIW1Z1oKOCVmpuVqCobvOlc3TgpvqascvfBeXN0UpVXybWIv3dZBfer+hhv9b+AgNDN+NG37eC37LH9dzcy+LMzH/g9h0sE1MJIZWx4Y6MkPXi1vI6S4wr7EzdPACi2iWhuc7fjweI8v1maFkrYgVD22LXRrZC3x07DnwH6c7XcC9GVhEUmjAjuDOM/5Tfyh5f/UA2f6EhztMZxwYSiEVKYyuiBo6pSoONirQnnvYhgs2jjxoaJ/SJu2xQxKMaIMZarRDxpiR7LBPU0p1qsAjkY5K/YjSfpsahIwoO9vQqU1w1A6pl6/yb2lePj/fPz9fblf7A8MO1DlgjRQJbUvrQlXWocssjKxhx7Zn0Ls91o4S3IahHkBOy9Y8HQ0XrAS0e1NhXzCDVx5tuHmB5aobuDt9jYkTadCeSRKBv/15hjnAcDiaTluxYcjmDxyDEU6Ths66H/RAtZc1hMwwjDcwHOKADVh9eyqejA1deQ2pSp/JQalewAyhWfvpc3JmSLQmPDH5AsOWKENPAUMci7Ghj9Vg9dE8bxjuGa4kyQllCQ09bCyDMieoaSsxZEU1shbZ1UJ/PB5TlUhj1lWZsBx0B19tyNDLDbtUFNvNzeFMk9qVGQ7oAsYju9r2W77vJYbEC2QKTl9muEoMjZwhpApHVJLgFFF6h4bDvGGQNSTqeAEXxlczEkOGY7BZCg3bYCgEeMOqMnSTmawT2xmiBj3JY4aqRJx6yC5gU0okbg7nUoOu0M7Bnyj0+0yp6UDuNDX0aQOexFlwCwcjLTEc2nhsiIZk04e7J7Jeu67MkDWT0p2KcKP7ITRfzx5BuDKkoqzo0D5rqihUlmGeTQ2V9boPYth+BjXsEPr0kOqKXE9WC0b84hGR6awDM6zUB8MZNfwuvKSKhl26GcK7SkpPr86Q2GO5F0DdZxBgRGt5M2XTy0BdLZQRvMUmLZT10GfN0VLiRdlXFUUxfLg4hLV70ZdVdHFGysIdO8RVMRneDXDadGc9eQ1zi4GPmtnVsgEdBZ9i+WPWws5UWVQ3Dr8L0V9tCHstv6o3xb4DXTZta2N66mpUiBbCy1jW8QvPF8latL73Tzu/OV1//3M0Uj9yPwfr0h2vu7CRfNKmZbBoYrEi0qz1ga/6XeT9nEqL9oOP/CyLhZ1lpxxa3wD5G6Yk8dCAhh/4qt+lb2Q/ueK67MIc0gy2Vvl0W4oGm8LCl00hzwZxLYkghhhVPAb3DYf0/XPa+sgEr5U3b/abAlrNbxe2gKE1doxwCrfSwtDCCSjF8RVaXjjwwtVM7RIrUPFne5rBTkbQ1doslo76bKWWRjodQ4VHU09R7PTHb6mhFdI2RIIsgBMo/ADcDiU0dNUFC2vb4zHx+vB1s3dkIX/PsEVFxdD1AYnkZn88cOv1hS2LDpF0lfYGPju7pioNDbqRiFsXOgtZWJGZqrNIE4NvlY66KvwjqFNjTZWsocTClbE9w4N9oWNvWPAyoi4aas0ZGSliMEtCGnVcneEItqwGazzB6Giwe2IfO0Rq6hHUcIRbELiOzX0tPDmFXBQhyYTBdkvSRoUe58Hx5JUjKm96vbajwVsqHUxcseIO6wjT1LA+g3htRb7AEBJ6sHvy4JtwY0PojLUhbDfw2yPY5sU7VjxpgIkbG1pYvaDB/iugWfJzdxqwtSL+QSrucP00zb1niBnWrzEch8k43Bnijw/w2zHbgTVyZoqy1vcNvdRQRLNOYpik8axAWYdnYtiYEVce23ZXQENprw3bOcN4prHorNsdfTNDt9ww3qrGvdRJE1JwaC2XGM6aBL4iNZSKDC1MfG2+ynBIZ5Bl8Nk4zBsO6MgdhGAYUcVNksKhxkqOSgw71HJ9yFJoUADmoT3DFVU11jN0z5lVE+JA5jY27I3B0MI6UR1S1RLNzDQ21BnTgJTOQli5FlSXsIAv0AY+AcAgIDV00hkHdkcduK4LDwjWEq4WcGvw77HAj5Ua9tkqO66kDaMB5HyhW0ZM08V/kYEdv4g3hHADz0qeln52hgMywHjbaSUFtJbtwZI+wI26F4dhkpfmEQdDjeB1DrsO/0LyTfj3iNPFiyKiVGL4nahmpvkmeD5rxvr7w/6zQwppp6V+IOw/PyCel79iP8zhcDgcDofD4XA4HA6Hw+FwOBwOh8PhcDgcDofD4XA4HA6Hw+FwOBwOh8PhcDic/0/+B2GlKFeuthqjAAAAAElFTkSuQmCC;clipPath=inset(18.44% 0% 27.78% 2.44%);" vertex="1" parent="1">
          <mxGeometry x="36.119999999999976" y="20" width="95" height="52.36902050113895" as="geometry" />
        </mxCell>
        <mxCell id="bDyjh2r6DxuN5JzGMPox-2" value="" style="shape=image;verticalLabelPosition=bottom;labelBackgroundColor=default;verticalAlign=top;aspect=fixed;imageAspect=0;image=data:image/jpeg,/9j/4AAQSkZJRgABAQAAAQABAAD/2wCEAAoHCBUVEhQVFBQYGBUVHBwcGhoXGhkfIB0aGhcZJBwcIBkaISwjIR0pHiMaJDYkKi8vMzMzIiI4PjgwPSwyMy8BCwsLDw4PFxISGj0lISovMjcyND0yLzM1Ly8yPTIyMjMvLzIyLzs0Lz0zMzIyPTI6Lz0vPTgyLzI0PT0vMi83Pf/AABEIAIwBWgMBIgACEQEDEQH/xAAcAAEAAwEBAQEBAAAAAAAAAAAABAUGAwcCAQj/xABEEAACAQMCAwQGBggEBQUAAAABAgMABBESIQUGMRMiQVEHMmFxc5EUNIGhsrMVIzVCUmJysTNTgpIkJkPD0Ra0wcTw/8QAGgEBAAMBAQEAAAAAAAAAAAAAAAMEBQIGAf/EACURAQACAgEDBAIDAAAAAAAAAAABAgMRBBIhMRNBUXEi8AUyQv/aAAwDAQACEQMRAD8A9mpSlApSlApSlApSlApSlApSlApSlApSlApSlApSlApSlApSlApSlApSlApSlApSlApSlApSlApSlApSlApSlApSlApSlApSlB+UpWd43x7QTHEQXHrN1C+wDxb7hX2tZtOoc2vFY3K2veJRQjMsir5A9T7lG5+wVnbnnqBSQkcj+3CgH5nP3Vmp4y7FmJZj1JOSftNcvogq9TjV/wBd1K/JtP8AXs0UfpAjz3raUD+XQfuJFXfDeZ7aYhVk0OeiSAoSfIatmPsUmsPHYrmrGPhiMulgCp8CM0vx8eu3Ypnye/d6CK/a85g47JYSKkhaS0bYZyXj9x6sv8p8OnQg+gW86yIrowZWAKsNwQRsQapXp0zqVumSLfbvSlK5SFKUoFKVE4jMUhldcakRmGemVUkZoJdK864Lxvil1G0kKwFVbSdQx3gqnpq8iK2PBXuOxzd9msmo+p6unbHj160FpSo017GmC8iKG6amUZ92TvXUyKBkkYPjkY+dB0pXypyMjoaqOYIpJbZ1tphHJlcPqwB3hkalyVyPEUFzSqvgsckdtGs8okkUd6TOxyxx3j1wMDJ3OM+NTmuEyo1rlvVGRk+4eNB2pUe4uo4wDJIiA9CzBc/M19xyKwBUhgehBBB+0UHWlcjKu/eHd3O42HmfKvi3u0kz2ciPjrpYNj34NBIpXPtBnGRnyzv8q5w3cbkhJEYr1CsDj34O1BIpUaO8jZiiyIzjqoZSR9gOak0ClRob2NyVSRGYdQrKSPsBrs0gGMkDPTJoPulRjexh9BkTtP4NS6v9uc1A5m4sbW2kmUKzpowrHrqdVPTfYEmguKVU8A4n9It4pG0q8gJKqemCRtnfwqbPexx7SSIhP8TKP7mgk0rmkgYAqQQehByD9orHej7is05uu2kMmhk05xtnXnGAPIUG1pSlApSlApSlBRc08W+jQEg9+Q6U9hxu2PYPvx51gbaXPU/Ou3pD4jqvRHnuwoBj+Z+8x/26PlVNBcbVqcbDqkT8snlZvz18LwyV866rRc0NzVj00MZIWyS71PguqziXFfM3EtI23NRZuild2nUOvWisbmUznC6UxhP3ic+7Y/8An+3nXf0ZcdKyG0c9x8tFn91hkso9hGW94P8AFWUndnJLHJNRo52ilSVfWjZXHvUg491YmTPGS+48Qhx8qfVi0fsP6HpXOJwyhhuGAI9xG1dKkegK4yzKunUcajpHtYg7fca7VWcX62/xl/A9BZ1C4z9Wn+G/4GqbULjP1af4b/gNB5tyVf3qQOtrbLKhkJZmYDD6Eyu7DwCn7a1XN8jtwiRpUCSMsRdBuFYyR5Gd+hrL8mczJZwPHJDMxaQuCijGCiDHeYb5U1e8d4yt5wu6eOORNLIuJFGSQ8ZyApO2D/egr+C8p2svDRK6HtWR2D627pUtpwoOnAx0xXDl+3a54LdRHvGN2MY640JHIFHvbUP9VablgH9ExjBz2b7Y39Z/CoHotUi0lyCP1p6gj/pRUHPl/jWjgryZ78CvGD/N/wBP7njFVicOEXL8hIwZmjkPuM0YT7NAU/bVLeQSRy3HDU2E1wmn2LltO3jkNESfDR8vQOdoAnC5Y0XZBEqgeSyxgfcKCkvh/wAvJ7o/z1qTyfy1AsFvduXaULrB1bKMMAoXyC//ALwrheof/T6jBziPbBz/AI6+FaXlOPPD7dWHWMAg+3NBj+UeFpxB7i6uwZCWCqupgFyNRA0kHABUAdOvU124Mn0LjDWsZPYTDIUknH6ssD7wVK58iM5xmuHAb9uFPNBcxydmzApIi5DYGM5JAIK6ehyDsfZM4BDJd8Ta+MbxwoD2esYLdwoB7dizEjIBwMmgg2fCYrnjN3HMpZAHfAJXJDRAZK4ON89eoFdGsEsuNW6W+VjkUZXJOz9opXJOSMqG3zv7hUzl1SON3hIONEm+Dj14fGnMCH9N2ZAONCb4OPXl8aCJzJYJPxqKKTOh0UNg4JASU4z5HGD7Cah80cAit7y2SAvGlxhG0sxIDSKrYYknBVuhyKuOIof0/bnBxoG+Dj/Dm8ac8oTf8OwCe+vQH/OjoKrnjgEVmsEtqGjYMR6zHvKNSsCxOCMeG1WXpF4kf+GgLlI5e9KRk9zUo6DqANRx4kCu3pVUm3hwCf1h6An/AKbeVffO3C5W+i3UMZke3KlkAJJAZWU6RuQCCCBv3vYaDM8dl4YsSvYyMlxGylSBMCR4nU4wCOudumKnc+3HbW/DZGxmVCxx4F0iJx9pq4Xny2IwtrM0v+WI1J1eWQc4z7M+yonpLQsLIhT1fYA7Z7Lbag5c68q21vaiSFCrq6gku7ag2xzqJAOd8jFduZbKObhUV44LXCwwgOWb99ow2RnBzqbqPGrj0jAmwfAJ76dBn96o17ZvJwJI0Us/YwnSBudBjYgDqTgHbxoPnkjl627G2u+zPb4Y6tT9TrU93OPVOOlQuL2nCIZZe21SzyOzMqtIzamYnT3CFB32DHPSuvJPMiFILMRy9qoZWbSNC4DsGJznyGCOp+dXyjxKOyaWO7ikF0X2YIWZhgd0Hru2psjZtQ3oLD0YS9+8RdQjVkZEbquoyDf+bCqD7qei3ref1J/eWvv0eFmueIOyMmt1bS4IIzJMdJB8RnBr89GCkG8yCO8nUEeMvnQb+lKUClKUClKUHhvPbkcUuvfH+THiq1J6v/SpYmO+WXHdnQHP86d1h9i9n86y0b1v8aYnFX6YHLrMXt9p63BrvExPSvuy4WSAz9D0H/mrIW2PCsvm/wAvTHM0xRufn2Q0x3lA0mubRVZNFXF0rz+Tk5Mlt2ncvt8XyrmSoV0KtZFqCLdpZUjX1nZVHvYgZ91SYrbRVx/lGnuHAM/RLfPXso8+/QtWFc4kCqFGwAAHuA2rpWi9RWNREP2qzi/W3+Mv4Hqzqs4v1t/jL+B6PqzpSuUsgVSzEAKCST0AA3NB1pUOw4hFOpeGRZFB0kqcgHAOPfgj51MoFKVnOMc321tL2L9ozjBYIudORkZyR4b4GdqDR0rnE4ZQw6MAR7iNq6UClKUClKUClKUClKjwXUb50Ojaeulgce/HSgkUqhuuZoI7tLVtfavpGQo0gt6oJznJ26Ajer6gUpSgUpSgUpSgUpSgUpSgUpSgUpSgzHPXAPpdqyoP1sZ1x9NyBumT/ENvLOknpXkvLEIafDj1MkqfMeBB8j4V/QFYbmnlBml+l2mFn/fjOAsntB6KxGxzsfYdzNXNb0rY9+fCnycHX3iO6E9vmo7w4rjDxTqrAo67NG4wy+9Tvj21zl4mprCy45iVfddEi1Elr4m4gtV1zf1HWlpV8lo9n1dSgVqPRvwQvKbtx3FysWf3mOQzj2AZX3k/w1B5a5QlumEk4aODY75DOPIDqF/mP2Z6j1W3gWNFRFCqoAUDYADoBWhgw9PeVjicaeqL2j6d6UpVtqFVnF+tv8ZfwPVnVZxfrb/GX8D0FnULjP1af4b/AIGqbULjP1af4b/gagyPo1l0WFw+M6ZHbHniGI188O5rvrqNmtrJGKnBYyDT0B04YqS2+djtt518ej39m3f9cn5EdSvRV9Tl+M35UVBK5c5ne5iuAYQLiAE9mDgOcNpHe3U6hpIPTbfyyXDL27HE7iRLUPcFW1RF1GgZjydZODjCj7aueSP2nxH+uT896cA/bt5/Q/4oqC149zQ8cyWtvD2tywBKlsKuRkA+ZxudwAMHNR4OaZ4riOG/t1i7XASRGyu5xvuRjOMnO2RkYOagcLOnj9wH9ZlbTnz0REY/0A1+elbBW1UbuTJpA69EH99NBcc080taTRRiLtBIMnBIb1sYUAbmvgcxXaW1zPPaiLstBjUse8HbBBPmNvAdelVnOv7U4d/XH/7ha0HPf7OuPcn5iUFCebb54PpEVkvYqCXdn1ZCk6iFyraRvk4PQ+VdIubry4QvZ2WpU9dncEasZKqoKlsDHTJ3Gw8ZXAP2GfhT/ilr59F31J/it+COgsuUeYRexMxUJIhAZQcjcZVgfI77ew1WnjPFHGuOwRE6gSuNR+zUpB9hFVHo7uhFHxCRgdMaq5A8kEpOPsFTeFLe8RQytc/R4GYhUhHeIU4PfyGHlnO+DsKCy4ZzLLc2jS29uHmRwjRFwB4EsHbG2k9D45G+MnIcj3l1H9I+i2om1FNeZFTSRrwO8RnO/wAqvvRQf+Hn+IPy1rj6Kut574/+5QWt/wAXC8TtoWt4y7oD2pwXTV2mVU46befia68wczNFMltbxdtcOM6c4C5zjPmcAnqABuTVPxz9vWn9Cf8Aer5sjjmGXX1ZToz8GMjH+kN8jQTYua7iGeOK/t1jEpwrxtlRuBvuRgEjO4IyDjBqZzTzM9pLDGkIk7Xw1EHOoAKoAO5zVP6VyOyt1/eLPgeONIB+8rX5zsD9P4bnrqTPv7aOg7cQ5svbZla5s1SFjgaXDN7RrViurG+CBnB9uNxG4YAg5BAIPsPSsb6VPqcfxl/KlrVcJ+rw/DT8IoJlKUoFKUoFKUoFKUoFKUoFflftKCt4nwaC4GJolfHQkYYe5hhh9hrNXPo7gYkpNMns1KwHu1Ln7621K5msT5hHfFS3mGDj9G0We9cSkfyhF+8g1ecK5StLchkiDOOjv3iCPEZ2U+0AVoKUilY8Q5rgx1ncQV+0pXSYpSlAqs4v1t/jL+B6s6rOL9bf4y/gegs6j3cOuORCca1Zc+WoEZqRSgoOAcura20sAkLiQsSxAGNSKvT7M105Y4ELOJog5fU5fJAHVEXGB/T99XdKCg4Ny6tvc3E4kLGcsSpAAGpy3Xx64pY8urHey3YkJMoI0YGBqKeP+n76v6UGc4/yvHdSLKHeKZOkkfXbpkezfBBBqNw7k9VnWe4uJLiSPGjXsFwcg4JJ2O43xnfGa1lKDP8AGOXFuLm3nMhUwFSFCghtLhuudumKn8b4cLm3khLFRIB3gM4wwPQ+6rGlBTWPBRFZ/RA5I0OuvAz3y2Tj2aqctcDFnCYlcvly+SAOoUYwPdVzSgzfAOVktluFLmRbgAMGAHdGvI2PiGNQrTkt4tSRX06QsclFwG38n6A+0LWxpQUXK/Ly2Uborl9baskAY7oGNvdVNNyGBLI8F1LCkhOpEyNiSdOpWHd3OAQce2ttSgz9zy2r3kN12jAxKqhcA6tOvct/q+6vzmDliO6ZJNbxTJgLIh32ORkew5IIIPtrQ0oMjYcnKsyTXFxLcSR40a9gMHI2JJ2O4GQM+Bqfxvl1bm4t5jIVMDAgAA6sOrdfDpir+lBScz8CF5CsRkKaXD5AB6K4xg/1fdVpaQ6I0QHIRVXPnpAGa70oFKUoFKUoFKUoFKUoOcr6VZuuAT8hVFyhzA15E7tGIyj6cBi2e4pzuB51d3X+G/8AS39jWL9FP1Wb4v8A20oLjivMDQ3tvbCMMJgMuWIK5Zh0xv086+JOY2HElsuyGlhnXqOf8Jn9XHsx1qn5n/bNh7l/MeqrmS9eDjBmRO0dEyF3/wAhwScb4UZY+wHpQazjfMjR3MdrbxCWZ/WBYqEBGRkgHwyx8hv4ir+6uFjRpHYKiAsxPgAN6yHo6tUaKS6L9pcTMwkY9V72dP291j71HhXb0mzlbEKOkkiK3uAZv7qKCNHzdd3DN9Cs9canGuRgM/MqoPTbUTuKmvzJOllPPNamOWFlXQzEKwZkGoNjp3j0z06+VryrAqWNqqjAMaMfazqGY/axJqF6Qf2bP74/zo6Crtear6RFePh2pGGVYSbEfKp/GuZ3t2s1aEargDWC+OzOYwRsDnBY/KqbljmC5SC3iWwkeMYXtQzYILbtjsyMDJ8fCvz0lsVnsWC6ipchR4kPFgfb0oN1fXHZxSSYzoVmx0zpUnGfsqp5S4615A0hjEZVymAxbOEQ5yQP4vuqh4hzPdtDKrcMlRWRgWLNhQVILf4Y6dakeiz6nJ8ZvyoqDa1WcX62/wAZfwPVnUS8ti5iIOOzcP7wFYY++gl1E4jMUhldfWRHYZ81UkVLqFxn6tP8N/wNQYfgvF+K3UbSRGAqraTqGDqCqenuIqfwjmyZblbW+iEcjEBWXoS3q5GSCGOwZTjO2Bvj89Ff1SX4x/Kiqv8ASuADauNnxJgjr3ezI+R/vQegzzoi6ndVXzYgD5mudrfRS57KVHx10MrY/wBpqh5rtLEtHLfNjSCqLqbfcEkKneJG3TbpmsXFcW44jaPZRvEjOqktkB9T6SVyT3Spx/8AFBseZOZmt7i2iQRssrYkLE5XvoPA7bE9fKtLFOjZ0srY66SDj5V5rztweGO9ttEePpLky95zqLSpqO57udTdMda2C8s2kUE8aqY45V/WnW3qrnfU5OABmgsv0tb6tHbxa+mntEznyxnNTq8m46eFiF47SJ5JFAxInaFU7wyWZ23UjPQEb+HWt1yVMz8Pt2YknSVyfJXZR9wFBJ5g4ylrA0rgtvpRRsWc5wufAbEk+AB69Ky9lc8XukEsbQwxtugYDvL4EZVzg+ZxnqNiK4elZjm0XOFPaE+/9WM/YCfnXoMaBQAowAAAB4AdBQV3AHuTEfpaqsoYjuYwyjGG2J67+XuFSRxKEv2Ymj7TONGtdWfLTnOaznpH4i8VoFjJVpX0EjY6NLFsH24A9xNZG5bhH0MxxsTcBMq+mUEygZwcjSFJ2x0AP20HrMsqqMswUeZIA+ZqPNxKFCA80altwGdQSD0wCd6894pftPwOJ3bU6yBCx3zoZwCT4nTjJ8TmpMvKtr+iu3EZEvYLLr1NnV2YYjTnTjwxjp7d6DccUvBFDI+VyqsyhjgEqpIH3VT8pcwm6hLy6EcOUCqcZGlCDhjnOSRVFwqzjueDAzKXNusxjJZhpKB9PQjIAwADtgCuHo/5ftp4DNLHqkSXutrcY0rGy7KwB3JO4oPQ+3XJXUuVGSMjIHmR4DpSGdHXUjKy795SCNuu42rza64SlzxueOQnSQGYKcFgsUXdz5Zx8q687pHaxW1nEzRwSM7S7ljp1L57kbscewUG+h4jC7aUmjZh+6rqT8gc1MryHjlxwvsAbNmS4jZSjASgnDDOWbbIHeB65Ax5V6bwK8M1rBK3rSRozY/iKjVj2ZzQWNKUoFKUoFKUoFKUoPh1yCD0Ix868x5d4v8Aot5re7RwrNlWUbEgYyMkZUgDBHTofZ6jSg85srhuI8TiuI43W3gUd9xjJXUfDIyWYDGTsM+yu1wP+Yo/6f8A68legUoPOGzwriORtZ3PXyTf2fwE/wCxvEitXzXwk3Vo8a417MmempfDPtGRn21eUoPOeBc4i0iW2vI5UeEaVOkboPVBBIOwwARkEAGpfH+NLd8LupEjdEVo1UuAC/6yIkgDIxk46npW7pQec8v8728FrFE8cxaNcEqqY6k7ZcH7q+Oc7tZpOFyqGCyHUAw3AMkXUDIzXpNKCDxr6rcfCk/A1Zj0WD/g5PjN+XFW1pQKUpQKg8YBNtOAMkxvt/oNTqUHlfJ/MP0OB43tpnZ5C40LtuiDBzvnK+VTYOH3XEbuOe4iMNvHjCPkEgHOkBgCdRxlsAY6dK9HpQeec0qYuKQ3M8TSWwQDIXUFID7EHbIYht/eMkVG4vxD6VxCwkjilCK6AM8bKG/Wgkj+UedemUoMD6RYHElncKjOkLEtpBOCHjYZx0BwRnp8xX1xviT8QsJxbwzKEaM4dd3GrLBQpOdOFOAc+zpneUoPM345G3DGtYbeUSCNVcLEdKsNOt2YeBIJydzkZxWr5GUjh1uCCDh9iCD/AIj+BrQ0oMrz1wFrq3HZgGWIkqDtqUjDJk7AnYj2jHjmqjh3PnZIsd5BMJVAXKqMtjxKuVIbzxkHrt0r0GlBheOxS8SsNaQtG6SFkR/WdApBO4GCQxI/pxnelpz0qIsc9tOJlAVlWMbkDGQGIIz5Y29tbqlBiOdJnm4Yj9k6M7oxjIJZfW6jGfLw8asJUP6F04Or6IBjBznsBtjrmtPSgxnJ9q7cJePSQ7iZQGBG7agOvhmqTkvjhtUNrJbzGV5QQAvTUEU6gdxjBOwNenUoMFYRN+n520tp0dcHH+FD49Kl8+8Klk7C4gTXJbtkoBkkZVgQvU4Zeg3OT5VsqUGKXn6MjAtbgy/5YQHveWc5xnx059la+BiyqSukkAlT4Ejp9ldqUClKUClKUClKUClKUClKUClKUClKUClKUClKUClKUClKUClKUClKUClKUClKUClKUClKUClKUClKUClKUClKUClKUClKUClKUClKUH//2Q==;" vertex="1" parent="1">
          <mxGeometry x="20" y="278" width="123.57" height="50" as="geometry" />
        </mxCell>
        <mxCell id="bDyjh2r6DxuN5JzGMPox-3" value="" style="shape=image;verticalLabelPosition=bottom;labelBackgroundColor=default;verticalAlign=top;aspect=fixed;imageAspect=0;image=https://roadmap2021.esfri.eu/media/1072/elter.png;" vertex="1" parent="1">
          <mxGeometry x="32.46000000000001" y="212" width="98.66" height="66" as="geometry" />
        </mxCell>
        <mxCell id="bDyjh2r6DxuN5JzGMPox-14" style="edgeStyle=orthogonalEdgeStyle;rounded=0;orthogonalLoop=1;jettySize=auto;html=1;exitX=1;exitY=0.5;exitDx=0;exitDy=0;entryX=0;entryY=0.5;entryDx=0;entryDy=0;" edge="1" parent="1" source="bDyjh2r6DxuN5JzGMPox-5" target="bDyjh2r6DxuN5JzGMPox-12">
          <mxGeometry relative="1" as="geometry" />
        </mxCell>
        <mxCell id="bDyjh2r6DxuN5JzGMPox-5" value="Data filtering, cleaning and thinning" style="rounded=1;whiteSpace=wrap;html=1;" vertex="1" parent="1">
          <mxGeometry x="174.29" y="120" width="120" height="50" as="geometry" />
        </mxCell>
        <mxCell id="bDyjh2r6DxuN5JzGMPox-9" style="edgeStyle=orthogonalEdgeStyle;rounded=0;orthogonalLoop=1;jettySize=auto;html=1;exitX=1;exitY=0.5;exitDx=0;exitDy=0;entryX=0;entryY=0.5;entryDx=0;entryDy=0;" edge="1" parent="1" source="bDyjh2r6DxuN5JzGMPox-6" target="bDyjh2r6DxuN5JzGMPox-5">
          <mxGeometry relative="1" as="geometry" />
        </mxCell>
        <mxCell id="bDyjh2r6DxuN5JzGMPox-6" value="Load GBIF data from API" style="rounded=1;whiteSpace=wrap;html=1;" vertex="1" parent="1">
          <mxGeometry x="24.289999999999992" y="77.5" width="120" height="52.5" as="geometry" />
        </mxCell>
        <mxCell id="bDyjh2r6DxuN5JzGMPox-11" style="edgeStyle=orthogonalEdgeStyle;rounded=0;orthogonalLoop=1;jettySize=auto;html=1;exitX=1;exitY=0.5;exitDx=0;exitDy=0;entryX=0;entryY=0.5;entryDx=0;entryDy=0;" edge="1" parent="1" source="bDyjh2r6DxuN5JzGMPox-7" target="bDyjh2r6DxuN5JzGMPox-5">
          <mxGeometry relative="1" as="geometry" />
        </mxCell>
        <mxCell id="bDyjh2r6DxuN5JzGMPox-7" value="Load eLTER data downloaded from EIDC" style="rounded=1;whiteSpace=wrap;html=1;" vertex="1" parent="1">
          <mxGeometry x="24.289999999999992" y="160" width="120" height="52" as="geometry" />
        </mxCell>
        <mxCell id="bDyjh2r6DxuN5JzGMPox-15" style="edgeStyle=orthogonalEdgeStyle;rounded=0;orthogonalLoop=1;jettySize=auto;html=1;exitX=1;exitY=0.5;exitDx=0;exitDy=0;entryX=0;entryY=0.5;entryDx=0;entryDy=0;" edge="1" parent="1" source="bDyjh2r6DxuN5JzGMPox-12" target="bDyjh2r6DxuN5JzGMPox-13">
          <mxGeometry relative="1" as="geometry" />
        </mxCell>
        <mxCell id="bDyjh2r6DxuN5JzGMPox-12" value="Generate background points" style="rounded=1;whiteSpace=wrap;html=1;" vertex="1" parent="1">
          <mxGeometry x="314.28999999999996" y="120" width="120" height="50" as="geometry" />
        </mxCell>
        <mxCell id="bDyjh2r6DxuN5JzGMPox-22" style="edgeStyle=orthogonalEdgeStyle;rounded=0;orthogonalLoop=1;jettySize=auto;html=1;exitX=0.5;exitY=1;exitDx=0;exitDy=0;entryX=0.5;entryY=0;entryDx=0;entryDy=0;" edge="1" parent="1" source="bDyjh2r6DxuN5JzGMPox-13" target="bDyjh2r6DxuN5JzGMPox-17">
          <mxGeometry relative="1" as="geometry" />
        </mxCell>
        <mxCell id="bDyjh2r6DxuN5JzGMPox-23" style="edgeStyle=orthogonalEdgeStyle;rounded=0;orthogonalLoop=1;jettySize=auto;html=1;exitX=0.5;exitY=1;exitDx=0;exitDy=0;entryX=0.5;entryY=0;entryDx=0;entryDy=0;" edge="1" parent="1" source="bDyjh2r6DxuN5JzGMPox-13" target="bDyjh2r6DxuN5JzGMPox-18">
          <mxGeometry relative="1" as="geometry" />
        </mxCell>
        <mxCell id="bDyjh2r6DxuN5JzGMPox-24" style="edgeStyle=orthogonalEdgeStyle;rounded=0;orthogonalLoop=1;jettySize=auto;html=1;exitX=0.5;exitY=1;exitDx=0;exitDy=0;entryX=0.5;entryY=0;entryDx=0;entryDy=0;" edge="1" parent="1" source="bDyjh2r6DxuN5JzGMPox-13" target="bDyjh2r6DxuN5JzGMPox-19">
          <mxGeometry relative="1" as="geometry" />
        </mxCell>
        <mxCell id="bDyjh2r6DxuN5JzGMPox-13" value="Extract environmental covariates" style="rounded=1;whiteSpace=wrap;html=1;" vertex="1" parent="1">
          <mxGeometry x="474.28999999999996" y="120" width="120" height="50" as="geometry" />
        </mxCell>
        <mxCell id="bDyjh2r6DxuN5JzGMPox-27" style="edgeStyle=orthogonalEdgeStyle;rounded=0;orthogonalLoop=1;jettySize=auto;html=1;exitX=0.5;exitY=1;exitDx=0;exitDy=0;entryX=0.5;entryY=0;entryDx=0;entryDy=0;" edge="1" parent="1" source="bDyjh2r6DxuN5JzGMPox-17" target="bDyjh2r6DxuN5JzGMPox-26">
          <mxGeometry relative="1" as="geometry" />
        </mxCell>
        <mxCell id="bDyjh2r6DxuN5JzGMPox-17" value="GLM" style="rounded=1;whiteSpace=wrap;html=1;" vertex="1" parent="1">
          <mxGeometry x="434.28999999999996" y="212" width="60" height="30" as="geometry" />
        </mxCell>
        <mxCell id="bDyjh2r6DxuN5JzGMPox-28" style="edgeStyle=orthogonalEdgeStyle;rounded=0;orthogonalLoop=1;jettySize=auto;html=1;exitX=0.5;exitY=1;exitDx=0;exitDy=0;entryX=0.5;entryY=0;entryDx=0;entryDy=0;" edge="1" parent="1" source="bDyjh2r6DxuN5JzGMPox-18" target="bDyjh2r6DxuN5JzGMPox-26">
          <mxGeometry relative="1" as="geometry" />
        </mxCell>
        <mxCell id="bDyjh2r6DxuN5JzGMPox-18" value="SVM" style="rounded=1;whiteSpace=wrap;html=1;" vertex="1" parent="1">
          <mxGeometry x="504.28999999999996" y="212" width="60" height="30" as="geometry" />
        </mxCell>
        <mxCell id="bDyjh2r6DxuN5JzGMPox-29" style="edgeStyle=orthogonalEdgeStyle;rounded=0;orthogonalLoop=1;jettySize=auto;html=1;exitX=0.5;exitY=1;exitDx=0;exitDy=0;entryX=0.5;entryY=0;entryDx=0;entryDy=0;" edge="1" parent="1" source="bDyjh2r6DxuN5JzGMPox-19" target="bDyjh2r6DxuN5JzGMPox-26">
          <mxGeometry relative="1" as="geometry" />
        </mxCell>
        <mxCell id="bDyjh2r6DxuN5JzGMPox-19" value="..." style="rounded=1;whiteSpace=wrap;html=1;" vertex="1" parent="1">
          <mxGeometry x="574.29" y="212" width="60" height="30" as="geometry" />
        </mxCell>
        <mxCell id="bDyjh2r6DxuN5JzGMPox-31" style="edgeStyle=orthogonalEdgeStyle;rounded=0;orthogonalLoop=1;jettySize=auto;html=1;exitX=0;exitY=0.5;exitDx=0;exitDy=0;" edge="1" parent="1" source="bDyjh2r6DxuN5JzGMPox-26" target="bDyjh2r6DxuN5JzGMPox-30">
          <mxGeometry relative="1" as="geometry" />
        </mxCell>
        <mxCell id="bDyjh2r6DxuN5JzGMPox-26" value="Build ensemble model" style="rounded=1;whiteSpace=wrap;html=1;" vertex="1" parent="1">
          <mxGeometry x="474.28999999999996" y="290" width="120" height="50" as="geometry" />
        </mxCell>
        <mxCell id="bDyjh2r6DxuN5JzGMPox-30" value="Predict species distribution" style="rounded=1;whiteSpace=wrap;html=1;" vertex="1" parent="1">
          <mxGeometry x="314.28999999999996" y="290" width="120" height="50" as="geometry" />
        </mxCell>
        <mxCell id="bDyjh2r6DxuN5JzGMPox-34" style="edgeStyle=orthogonalEdgeStyle;rounded=0;orthogonalLoop=1;jettySize=auto;html=1;exitX=1;exitY=0.5;exitDx=0;exitDy=0;entryX=0;entryY=0.5;entryDx=0;entryDy=0;" edge="1" parent="1" source="bDyjh2r6DxuN5JzGMPox-32" target="bDyjh2r6DxuN5JzGMPox-33">
          <mxGeometry relative="1" as="geometry" />
        </mxCell>
        <mxCell id="bDyjh2r6DxuN5JzGMPox-32" value="" style="shape=image;verticalLabelPosition=bottom;labelBackgroundColor=default;verticalAlign=top;aspect=fixed;imageAspect=0;image=data:image/png,iVBORw0KGgoAAAANSUhEUgAAAQ8AAAC6CAMAAACHgTh+AAAA2FBMVEX///+dnZ2MjIxUfb/Dw8M3Z7Fubm6YmJhsbGxwcHBpaWmampr5+fnz8/Nzc3OWlpbZ2dnl5eWpqamAgIDAwMCzs7Pv7+/S0tLLy8vj4+OGhoZ9fX2hoaGtra3W1taPj49Kd7wqYbBGdLtTd7Syt8E/a7JhYWFpjMZ5l8u4xuLK1epZgcGTqtTT3O1lgraFmLqWo72FiZHGzt6tv+Dp7fZ2jriLlaecsdd6jbDBzubf5fKfqr6FoM9kiMSkuNpXc6WRl6Fne6C2usGcp756hJdPcKlheKJEba4/dRIeAAAL+ElEQVR4nO2dZ2PbthaGSZoGCe69KcnyaLbT2mkSt0maNG3+/z+6B4MSl5z41pZjGE++WIJAAi8PzsFkFEUikUgkEolEIpFIJBKJRCKRSCQSiUQikUgkEolEIpFIJHdKELi7ktwg2GdJfgbKxjCMdD4thaTmUSmStYYKGMlcos7S2mzfpbovnMSwVYofTlNDn6XZRuLsv2z3QK5yNYBmmhxtUm0733/p9k0YGeoWoxin54PkpryPMu4PJ/XVAcbISzj2MN1Pd0YhAXCNUXVVexRj0skPfIEFKca1JS0mzPU0AtokLwtj8gNbv+9S3x2Tp0/jiG3bzH3aE/MhX7f3Xeq7o52p73eJ7rvUd0c+bQ7fxRA56DY318O+7zLfJYsdBmJzHzJjHov7LvOdMjUQ2/D9KAUiw5/zp/dd4rulNEZiNEmw6ZJlZdL4Q0kEN4/+8IS0knQyoAvTgZEIHFwYfQNJf7v48xfgxcVl7xdZr5diCD5+gQHKVo43z9er1QGwWq0/XPQG98nGyxgCd9YZCX/4ze8HVIuO1ertRpFA71qVyJ1TyoKPb5t3AzWYIk/5j9xE79qMIfDoBXC74f6b9WoNrAaqrH/hfqTQN4LMTaGJAx/ANG/WT54+e/ny2dMn4EOmJlImW0FE7oAE3Dzevd36yau3B+ueibwg32WgRyeIPZlCEwcWN+zocvCt8/T5VpHVL8St6gQeZXxhp5W74e20gu+fb1rN6uCSOhCAWZM9uyohAuyB+7NLTRdbP7K+UgLSYPR0yWKMoAZS+td1Kdw/11tBqAPRC58KIuoMCHOQ/s4u+LNt9P2Nthc9rZbiDWLcLCsDgPdMr6mcszGR1QkTxNeW1IOQ/GWWidB7T33fNwg8fF5r/E+5hawO/6AutdWYIPQCcJ32wbuSaLzAdP0zvvrAFDk8ooIkGhOkw37oTWcxWo8jzcV9/+LF22eX8xl4mzk8PDonghgjQR66bx2vQNk6iazAev3h47wkF6ekvYAgxyeF/rs2FOSh91bHehjlx01YXa0/vJ/L83JN9QBFjo4+LYeCiKaH/VtvsAI9jYOLGQ95+fz0kPON6rEVRDQ91D9H8x6rg49TRZzjI67HqcYRVY/xLBBR5GKSTX/TCaINBXkEeoAiz0d+xE2KP06PqE9dDgV5FHqQmbGX/Vx0OHcO/vT4y1YPzX48eoAiT3rRN2G99RMIuJo2EEQ0PZpdekD0fdF1XUuuB++g9gURTo9XOwUBRXio2cqhJ9VAEEM0PdR30DU9GE+s90INKLLo6ZFqQ3zR9Ph9/fTSca/evxhMrPcU+RjoPf4a6VE98PWYyYaPv7pFJ+Xq46wk66Pj14leALr+x+rrWI8Hbh9Kc914/+rtVBI6bvn2Cjg+PPq2HOmxfOgTIE7EZoMMe3455erjh74zWR0O+NyZBSMWYTNqFpZkvrDg60vTLeuX75+supX+oRxHvzI5mmSxCIIyFGvtkglizC43vLx4AnZyeDRQ4xv3pv6+S7of+FaYZtfBluD1+ZvjUzLrARyevnqt+2L40F3w5cq2mFHEKXXodkBQ+fLlBPjyBf5uufN46D50F13wTRI9GEjihHmS6GN4X73acaxMAPgKdQN1TZIiD8Isy4JFrs+IAbZiCG4em/0OdssNYFaHTo6IyyHscray2Q9jp12t/z5/fUK8xliM5PW7rgd232W+S7r9UlyQ4piHkvPzv8GHUmtJTk5enx8ffep6YmLvuOzWp1iT+dL1N3iIpdC/Py8fQWshdPst7YZYw9HhLKdfu3HLzAFMsdgeGPRTaC9zamzaCpiHAOOV6+nt19b89O+pgRz983U7qBXceyjDI2PLyv93NGQ5/PfXwRBf6NNAyvi8B6n6r58/fWNDlm+fPn/VRhMeleDnPUbngdhqNYgCaGMtxO9+KMF4+nBOgqGBPPANH9czPS72XUFENpCJefyAIMLOfig7ziN/TxCBN/TPn1fXujW4qqpm9BA45OpTPewkzNMoapomSoswmQoi8HTQ3PsuRru3m4kescjvEXLTkUcdvw8lGxlIZYu1xjChbPqKTF/uMWgx1VLo3gej6DWameF8L9wIP/nBcDcvEZo7LFjGnRqR8IP9Dv6SqfmTTyltMdXucyEislANw9+xOV+NoR/yCBzHAGeR7wykWZGLu+YikUgkEolEIpHcCUGq+mp7w5606wra815UFkYIYbO+yfy/c3Ym5hxGijD2lqpfgyI3ODPuWGh6ICHczKdfPzXqV6PpkbTqJhF3Zwqr71z1VkhNr6avQ3eK2LvBq/Pn9cAew9wxN+pmtJHV1ig9QiwfvmbLoW5Zd7+AlSMv7sqW3WSeZoceWkYJd1QrtWgji8d6RWbK8l1jAa5/93v+ndjz/r/Zqnk90HfWZHfqsYdH/yMsTDy3KOQMgofruv0PLGWjRz91pIfjOP0PylCPfmJkDcXt5XSmcayXcyb1v9BiPNPSk9iyvO4FlEVlWnjJN6/kmml5SaHZDtcjWCIL252VD/Qo7RrHdIt/7hduFGtKYVdepdoh0SOvcL3J19fDtSMlhZzsBSlOW6M6cgp/oThq48Cl8qzxPL4UnqmQat/idKyKa6ZvlnMcxdVMjMg/8igdg3+gq20t/YA8HHM9Ev5FMNWjgABeeRZJ0q0otlAF1gEeE1mlEnuNVVcY1Z1p9dpLhmLbqmNkkktlsYnj2opV0Mv1PBcuBRJUHqJ2FsDlK89Et9fWDByzP3QLUaxM8TG2gzKpPRQQx4+1vCxibELtdShcAR88j+sRYK8uwlzDvGIhrhuCmiuKZpGW2CKIGDqCn0FkccPIbEPwtbFHxM4q1K1pRkhjGTMlgzCzIHU14SJLUwMbCmqMiB5wFx3hpUs6CfC3E5vkFgnGtxaHN/ZRWBjwPJSBS6FrSaWHl1A4TM+1ZTExidqjS65Z3elh4Jo4ghSbKdfDMwnk6TnMjDUIraAHt+nOf7BbLMyq0wNjljGEWzLHlFqtEnALKr2tHh6tfIVKJbHYoldr3drC+MZ/uGUIpBi5LWZ3hDKaDjwO1hR0hMLQ5C40RUwPp8aREkZgsbw9Q7ylL5yiZz7cRF2qRWPlYFddM9r4U+qPMo8/DRJvWUaH2Ae9f24Z8HNeU9/q9DAN+oUNlzUQOz0QoVvbSDKKLxH2lKZrQgWy3LQTp8QoWCDMHnNgMj2gRas2tjy72yrY9x85NO64Nj1o3eA/Rnqw/hitIbtxz39wkw0sX7FN/nW70YNfqoEMsWdaFDO+JTlo/2MbYNwa26BHzT7pfT0ChIKgM5Z8qwc4zXTbent6ZBinruOEmjmnhznRQ99m3Oqhmvo2faJHjfOQUt7eToHc3PZPHR+bARnPsFr72HNyhNkTgoaVZZ0xRV18ATUL2tef6lGY7Kzg0voPeqRdRs2c0cM372CprzU9L6GlCiAARtQnUq+ZIHB64EJr0kZyDM5V0TDO6YfOn4J2pB5u1bhjPXSTDs1yPGgvCXMIM3rMtpcQsxZaIDSjh24xS06N29xJkkJcqTV7WWOMaBWgknWTLjENogUMtNQUTIVEiBJCoZ/aeBNv3Qp0Stsas8cO5Y9ThhsiLyUOeug/FmZNViyneiCb5UsGepCnpYclucqMHo5mVnkWthjd6s6aRWWSHhc2vaRTCCETmWxMXnj0Q03bUFBDF8X0fNJezogGmQZpkJ3nLC3u4c5CGDhb0PdqorNCSc42u0FUSIOWf0avnSFvYx88Y61klsf0OFvSepvkKtSfYvh1csb0UOEq0HOkqTcZlv8ITtDaht0Um3FICJ+bgjuFLLUNNeFpbuIvm1AnnayiIHVyisbYvovf3RyghN8HkW8XSpCESphsS5ynaakU7HqOrvObbN78AE9d533xhHqHvPHVAuJLwX7dXWqR8Lv7dnqP29BY8aHTua8b8rourZ/xfzXUYxozICzv6XCTq7FwX6D6Z5ysTS3sB9kC4tC+nhYM+/QwaPFPMj0ypjFhjIO60cpe7oiIp73RTPc+KSronu91H36ZNm3x826/c7JM5F3FEolEIpFIJBKJRCKRSCQSiUQikUgkEolEIpFIJBKJRCKRSB4X/wMinPDvaQORvwAAAABJRU5ErkJggg==;" vertex="1" parent="1">
          <mxGeometry x="326.2099999999999" y="38" width="96.16" height="66" as="geometry" />
        </mxCell>
        <mxCell id="bDyjh2r6DxuN5JzGMPox-41" style="edgeStyle=orthogonalEdgeStyle;rounded=0;orthogonalLoop=1;jettySize=auto;html=1;exitX=0.5;exitY=1;exitDx=0;exitDy=0;entryX=0.5;entryY=0;entryDx=0;entryDy=0;" edge="1" parent="1" source="bDyjh2r6DxuN5JzGMPox-33" target="bDyjh2r6DxuN5JzGMPox-13">
          <mxGeometry relative="1" as="geometry" />
        </mxCell>
        <mxCell id="bDyjh2r6DxuN5JzGMPox-33" value="Download environmental data" style="rounded=1;whiteSpace=wrap;html=1;" vertex="1" parent="1">
          <mxGeometry x="474.28999999999996" y="46" width="120" height="50" as="geometry" />
        </mxCell>
        <mxCell id="bDyjh2r6DxuN5JzGMPox-39" value="" style="shape=image;verticalLabelPosition=bottom;labelBackgroundColor=default;verticalAlign=top;aspect=fixed;imageAspect=0;image=data:image/png,iVBORw0KGgoAAAANSUhEUgAAAYIAAAEXCAYAAACgUUN5AAAAAXNSR0IArs4c6QAAAARnQU1BAACxjwv8YQUAAAAJcEhZcwAADsMAAA7DAcdvqGQAAEZRSURBVHhe7Z15jBzXfeffcG5yZiRekniLhyRSknXEOmzZ8pE4B6JNgsQb5ICMjZ3ATv5wYGANBEmAwAg2XgRQECP+I14jdhJY6wOGE9gbLZzDcdaWFOuwRNmSSB0kRYqHJJJDiTPkzPRc25/X/Zt5U1PVXXdXVf8+QKOP6emuqn7v932/473Xs1jHKIqiKF3Lmua9oiiK0qWoECiKonQ5KgSKoihdjgqBoihKl6NCoCiK0uWoECiKonQ5KgSKoihdjgqBoihKl6NCoCiK0uWoECiKonQ5usSEotT56TW/2nyUHf+68HV7H/Rd8ndFyRsVAkWpk4cQhAEx+ItDP2teunyV+dzbv9R8VVGyRUNDilIQfvH581aQvn3TmJmcGyyMOCnVR4VAUQrCt27c2HxkzOvvfKv5SFGyR4VAUepc/Z9XNB8lZ+8TQ81HilIOVAgUpU6aI/Ajd07b+x2PjViBOfBkv32uKEVFhUBR6mRRsfPq3ZNmpG/GHLpjtvlKA8ThjoMLzWeK0nlUCBSliYgBI/m0EO8AJGR0zdCEefK25a7H9wYJAwljTRorWaNCoChNxODuHB6PlTO49ek1LUf6IgqTcwPm/hdO2SohROCzh39yhTB4ycJbURQXnUegKHXCjrrxFgj5+IFxf/CGbc1nq0EoHrj1ayu+q9XnCSoEStaoR6AoLfAmelsZ7cGeueYjf16bHjV/+KMPNp8Z8/5nL7cVAUXJA/UIlMojI3DCPVQHyQg7jBfwrh/VzCO3DNiQz2jftPnuzWvta+O1dauSwFmiXoGSJSoESu6IAc7KuIUN87RCRCNtOOe4x6dioGSFhoaUXHGNYBoG20tan4kIEBb6uecu2hvC8KuHXl9KIvvNDfjtF483HwXjPT7CQ2kR99z5vyx+C6U8qEeg5EaQsUlrpNvOmJGsfeb2aPX7fp4BCV4qi7b2XzBjvdPmC9fvav4lGDnHpAa31bWSz456Pd1j4n957t4r1Uc9AqXjRDWOvD/q/8RFRICKIOH20eNmtC4AMLPYt+JvnzhyuPloJVkfb1qfL5+T1/VVioF6BErmJDEq7og07ucQxiGxSxhmfHYktFdAgtit78fIn6qtN5v6JszEwrB9bXTNlL2vLTZCRWG8g6R4R+mtrkuYEb37/3g7X7zzb1e8pl5B9VGPQKk8Ut0zMTcUKTR0YXZt89FyTmDbwIUlEZhZ6LP3MNAzm4sIRCWqeFLOqiLQfahHoKRGVKPjgsFJ8v9e3Ng+M3i39V8wf33dPrvMg7vsQzsQgLePvrI08h9cszxX4DN799t7PAV5nCdRr5kYdf6Hxx954sOh5jGoGFQfFQIlFZIa8bSFIIgoCWNE4xc2HFwa+RP+Ge2dMoNmznxn4kYrCn7zCbwGt9V5EYoZqH9Orf4deUwuk+ORcFlYVAyqjQqBkpg8DHhayASxVuBBnK6tX7X+z++99LLZ3DthTs1tMKdm11svA2Egb/D1A1c337USv6ojMcLinUQ1ynHBmP/+U78Z67tUCKqN5giUrqKdCIC7UxhzCAARkLAQuYC7ho9YEcBboIQ0CK8IgIgA21HC5HzjPg8GeuebjxRlGfUIlNiUyROIgozi3aohGbUzaWxP/1n72sWFIfPne282f3L0afOne263rxWVdiGqMKhXUF1UCJRYVFUEWoFXsLf/nJ078Me772i+Wny8IkDoy/V6wqJCUF00NKREphtFgBDR9r437WNE4IFXfmAfl5Hzc6PNR4rSQIVAyRwqY2SNniJDItkPPIFbh05YAfjkte+wr8l90fEbxZ+Y2tB8FJ40QktKcVEhUCIRxxhQFumXNC0alIJ6wRNg/kGZ8f5mlKvGRcWgmmiOQGlJmh0/6mSuouOOkmXk3Q2GUnMF1UM9AiU3rhlslGKWiaBF5MA1+jzuBhGAbjnPbkKFQAkkSYen3FLgMaWYfqGXoiNLRzAK/rNjTy499kIepEjoqF2JgoaGlBWkNdqTGnx3Ji/x9m/fNGYfFx0MKdcCAy9LP5Tp+PNAxaY6qEegJIbYv8BaPnBpadbskBUD3iNG1H1/EcH4iyC66/+oCChVRT0CZYk0vAE8AZZvZgcvFlJjFy8mYLEMw4M3bPNde6dIiCdQRopy7OoplA/1CJRUkBj5aN+0Wd/f2IcXEZDF2FiTB08AEUg6pyALQ1OGeQ6KkhXqESiWJCNJv6WdeW3X4Fm7ict3b17e4EXpHG6+Iw/UMygP6hEoicMJIgJupZDArmDwq4det/dKeuDFRMm35CkCSrlQj6BLSTOWzEizttBrBtbMr6iwmZgfCrXsc5YgTuOza1vmJdyRa1nzA0UliVfg/hbqXWSLegRdSJrGjhEpxh9D662w6bQIAEtH3zh6xgpTWKTyyaXoOYR2hlJyOEWHtik3lzTbrLIa9Qi6BO1I/mBAg64NIucuiUFFFJvTkPj27l7WKeQYW50HhNmZLS+CRKtdG1WvIDtUCLqANEUgTPkn+YCgrRuLhJ/xjLKncScRw95OAKqICkL6aGhIWQEjTMII73/28tK9y0jfTPNRMEUUAW+4xzWgbsLVTwT8kuCdZrR3tRegBlKJi3oEXUCnRox4Bs9e2r5is/S8RrDesA7GnOPw+/4gLwDvx02AF4kwnlk3oOKXDioEFaeV0c06DBJ3S8SkYPTZED6OAXfXE/KKiVJcVBCSoUJQYfL0BAghMXGM+/2Dp83m3glzcXHYrt6Z90SmIIK8EeLt7ixoASEY6Jlf4dEUjSIlgYuACkI8NEfQ5aRVKvn8xBZ7zzaI7Oj1+NTepSWcixhaAYwoYEj98hp4A8xBKBpULwl5ioBcL6V6qBB0MRh8v9AQsWe37txNpgYlToml2/v6CJp1++8aPmKfA//z2y8ebz7LliiJXYxou/cXMQ7fqdLVsnoeXi+Q5+5N8D7vJlQIuphWRs4dxU/ODS6NQoPCJMwsBv4+s9hrBuuC8CdHn7av/eL6p80Xrt9lH2eN9/gIFcjNy/0vnCp02McPt4qrLJPEikArA+8nCN2G5ggqTKsGzUj4urWvmecubbOjeKjVDbhfchSD894rXzAX54dWJH+DYu54BH+8+47ms8Z2jxImyougYxPwht5z5Yt2ghgM9sytECtJpBclv+GHiIIu6pc+3oGDtCW/AUUVUCGoMFFGNoR/2D8AMHyuAUQ0EImRvpo1jngH+4fPGPYXKCLtRIBzZb+Ebf0XzLa+C2bG9JmJ+WFzdm6kfp795vjURnPN0FtWHGCgZ9YKINehbB6EEo92bahqgqChIcWCJ0B4R4y/3DPqHOidtyLwtrWv2vLKsCLwey+93HzU4A+OPNt8lB2tOqiEUjhXRGBT34R9Dmyew5LZT1/cYTYMXDKbeht/43WB61AGqmaklOxRj6Di+I1qxFAEjXjc+nkpC20X3gkzWs5qRN3ufLxIyaX3nEhoH61tNuOzI+a16VGbAP8vGw5aL4GwEdfi5UtXdTxUpJ5JMaiS4KoQdDFhDWdSPnv8EfPxXe9qPkuXqCIAGPQ9A2fNaO/UCiFgJvRTk7uWRBBBfOdYo/pJPCCd0ZstZbq+KgRKZXANqOsJALmA3YNnI68dRDUOhhMBoIIIPnntO+x9VLwL2Hk7XxQBcEfS7rkSsvrzvTfbxwJeA6uMvjq1vjCGqVtEqCznWSUh0ByBsoQrAgKbzscFL4Ay0k2987HzA8TtvWD85RYG2Yvg5nUn7T0w0pccxmDP6jALoSPq9e++4mjzlc4T1ji6E87KyIN3/03zkZIX6hEoFjGqaZVLuqPsv3v1EXN0dq0ZWzPT0jNgbaLjM5ttZZJNSg+dXpWXYBTmJwCu5yCln9xvGXjTrh0kx8P9uflRmwwWAfjTPbfb+yKRZFQc5Pko2VAFz0A9AsUijTkNESA0dGpuvZ1PwG2iPkDd3Ht5RQWOiyxzQYmm1O5jvJ+4tMe+DnJ8rmC5uOGje0ZetPd3rDtmP4ckMCJAqGpz76TZ03/W/h0BKKIIQBQRkKUfEENwE8lpiQCCkgXyu1bBmJYZFQJlCUahMkkpLoxGf3x5h80RkB84OXelOTu/dilX4Bciwvi7IEaEN8Zr65qvrCZIsKgEAsRIICnsZWzNtBWpKiBLP8jkOHANaxpGtmpehQrPSjQ0pISOtUdFksYSlmHESu0+5ZgYZ0b8YsTomO5xSEe9/7HfMdcMTVixECMv4SKWsPAb0TPyh5NzVyx5AgM9i2awp8e+TphqW98l87Gd77bPq4Bca2U1rtHPoq1XQVTUI+hi6BS/+8MPNZ+lD4aJsIzE4onNiwh85Y27rQiQF2gFO6KJx8DsXzdn0EoEgFE/NNY+6rG3mfq4hzBVbbHH/K8TD9u/JwEvCi8oDfxWgg3LubnR5iPFixh/uVdvYDXqEXQpWYyMWkGFzqOT15uR3mnz86M/MnftOmaPwTuSlUQv0GEfP77bPobvX77ejK6ZsnMAMPKsZyTeBt4Bo3wMPNVKPG9ULE3XBWjI7OmvmQHTCE/VTGOGMKJwbr7XPDa1O3KJbNp0S2mokOekONpRq/be7u9hKLu4qEegZA4hIUasiMAtwyfsCP2ZEzvs3/b0v2HvAbF4/9jzK+L75Bgw+Kz7c+vQCRtaEg/jgVd+YJO/QEXSxELfUi7im2+93ZxdaCSUZQG8gZ7G30BEgdLWTosA7Bi+0HyUDwhPWLyJ+bC0KmMt2sxoDHnZjXkS1CPoYrL0CjAet48et/MQZGE3ILRDSEZG7m7cX7aJ5LWjM5vN6dp6W8uPQJAIHTSNZOj2vrdszB8w/rfufNU+hqMnt9jYP4lgRAEvAbb2DpnT89Nm05p+M7E4Z70BCRedmltjjsxushvqdArXE/LCtWQdqE54DBjzC7NrK1+C6ucVxPEUyiom6hEomUBVD5PBTs2utyP4sZ6pJUMOGHJG9LwmcX/ZKxjvAREQ+BzeRzjoy+feYZPAhHv8kr28DngB5AJgbE2jmSMGAoJwam7QPh6tiwzH2Ukm54I3fRnpnbFLZncChLgMIpCFAc5yoFQ01CPoYtJo6O1i24SFbht61YZ2iNlL9Q6339h+T/Ndy7iVQDIiIw+AR7F5TSMMxGcxMU02vrn32sYM4e+/ss8af4QCr+HgzPa6RzBuv5f/uaG/4ZXUFpdXEcU7gN/a8a5V+yh0GjyBNOZ1JKVVPF9+I2U1WYhTVqhHoMQmTILzdH2kTZxfJpOJCFxcWBkGkRARUGlEJ/q3YwfscwkrAYYaEcCbIC/ABvnw6efvs3kBwAO5uDBoVww9OnvVknEXAZBcASLAsWxcM2i+cvJR+3mIjkzMygtv1ZHE79MWgSiGyZ1A1iqeryIQTJmujQpBF5N0xBImZr1/6Iz5j7cOWGO8f8dpG5vnRlhHksISIgJG9xhwOhHVQEC+4FRt/VLyF0+AvAC3w9NbrQiwVPaH1j9q/45BF+MvFUmIB4Z/crFmzi/M2NdGe5Y9hHPzi9Zb4TuzTB77lZpOzjdCVEJWuYCohomcTdxEcRzKNIKuGioESqYQe3/fFYeazxrJXUGM9Mn5K+sj+OURqLuhDfMMJF8guQQJHX328E/aDWYQAcI6GHsS0EHrGbHUBeAFCEdnB2w56dbePvt6GnMLWuE3ui5C+McLeQFyNnkeWzuhKqNQlMUrUCHoYrJspFSbUAnz3ORW80/jt9mQizsnAGTyFwb+X95cXgaa6h0JTbD+0Oxi34rdxFgGg2NHBATxFsAtP/Uy0jNgbzKXgPkFhKl4jodANROhoVaf0Wm4rlHKP13SNqZ5egwuZRKFMoiBCoGSCRjv2nyv+eKdf2tLHyXMw+QtQkOIAHF8wAPwVqbIcwSBihrCSy4IjZR7IjLiLcDhqS3Wk0Aw+H/+TvhptN7aCQ0RChLjb+/rxp9j+v7MFXZdpPesfdncPfRK89PiE9VYh30/ZaZxw0dpG6WrBxtLfOeBe+xxzgPx0PCTPyoESiYgAruGG8tHyPryVO4cGDxtDS9GWUbxhI/cEbispglsqD/ZLPN0l2CgrBH434cvXW8fA0nnO9cdteEkZiF/ZNPDdtIZE8ckNASUlCICbphob995c+dg3TOI2Su8hpytLsE97lZklRvIEnehuyKjAtAaLR/tcrJ0W2VPAZkDQBJXln84NbfBlnZ6S0WBkTxxfz/4zIGeWRsysuGntSSMt9h1i/gbxt9N9iIqCMP23jdt5dK2vplGCKjuDUjiGlGQZDGP3bJWBOrAwBlzdHazTWK7pZQY/htHz9gQlXfBNzwR8WpanQ/wOVmIgHtNO0WeS0kEISLQ6WtRZDGKOfZRqgKNU25pgnGbmB+yE8mo6UcEmOlLSIi6fvYEODu/cqE04s0cRyujiTFnghklpoiAlKVi8EluekeobLXJKqckpBtlrItWBA7OjNkJZXgEiADIxDNKSbkBBp4KJDaygevWvraUzMZ447F4RQBG+pa9mqDzkfh6UhHweiLyW+Zl+Lxtx32epwj4VWQB1yHoWniPPU2y/Oy0USFQlkiz4WLcMMKHZrZaAWhMJGMU3qjhP1TbYo7VrrKPgY5KPoFlp724hm58luUW+szZuZGlfQY2OolkjLKEmcgTsLwFJawgq5Eeqg3Xjf+oFQYWnWMCGlivwPTakBFeAWIgVUTkOPhclszYXBcF2bdhtP6cx+7cAwzSeC1YzAQqckQM3HBYVLxCkvfI1/2+Thg/vpNbpz0PF46H69KJ6xEHDQ0pK0jDiBCy2T98xlysewTE6n/5iqdsfgBEDNwSTzrLJ5/5tcC1dgSM5k0jp62nsbX/gvUMXrp8VeASCBhnPAaMN8eyuY9cwUTd0A/ZRDMje0k4k0yGbX2NY0AI2GITZCkKPAM8EUJTiAoT1/73+XeaX9hw0P6dze4P14WvlUfTScQ4VQkxtEU+rzKIgXoESurgCWD499Tv3z36onmwbixZz+fgTGPFUXA7x6ee/SXz2vRymMid1Qp4BCRcdw6P2+cnpjbYPAChIFcEvP/He9j/gB3TuEcUGNkjIOQp3KojQkcCnsE3Tj5mN7CRSWcyQe1obbP9PzyKmfpn/syVjYolRIBltu8b+ZF9X9Epg3EKAwJQdHErg/iqECip84OLe+2o+Z8vvM0+v3/jf9pKIeYCEIb50oV7bOfAcGOQJuujdQlvkPD1jvD5G0tYQ6tJTn6eAe/H0+CeRDLhndsGG6uVMgmNmxWH+WErVojAY9PX2r/fOlAz5xZml0QAZLRPjkNEAS8BD4HvOTvfmbp6CIqRC65BKoNxyoq8RbAMoqtCoKQGo3YM+XuvfMEaSGK2D09cbw5O7zB/M36vXTTu8ak9trQUPvf2L5mPPPHhFStvYrCl/t8d4VMVhCfgTYxGgbkIeAdAopoQFTeO+7bBkzZZvKmXtZDm6kJGXqOxsxkegwviwcY6JKYJP0m4icd4CkmOMQlFipEXmbxFsAyiqzkCxZJGY8WAk8yVWD8xeEbKH9h9yH6+jIw+/8J7zEdv+N6q78TwM6pvV24ZFz6fah45PhK0JJopRcW4U1oKGH+qi4DQ0On5OfO9y/uW9lumnNTNcSAUz0zvtLOoWTIaOmGU8QhqdWEjmc5eEC9dvkbFoUAU2TNQj0BJDURgQ3/w2jSHX91qfv+p3zTbBlbvxiUikCV8/q7Bs81nxvzUyHPmwOAZK1iEf1iKWnIC3Mt8AyaY2Y1x6jfyDOQ63FE/E9qkjBXDm7fxlQlrfO81gxdt6AxxUxEoFgx83FuRUI9AsSRtmIRF/FbtJCb/36571C4Qh3ESGB11sjPgdXxg3fN1j6Uxv4HlLvb0X7aewKHZTebewbeWJp1RNSR5AvIBVCBxrogBs4fxAopsdIswqatM5N02i+ApqEegxMaN4WMYZX0fF+r66VQf3//vzVfaN3xEhVuWvDZ9hRUB5jeQJEYEmFNAWIilJo7NsbG9zDyeWdoEhyQxUMpKEpvRd9GNbDeIQJHDLmVAhUCJjTeUQ/zcje0jFHgEjJzxCMJCwtXPu0gDDLhM3nJ3S0MEiPvb8FCzV+ApNBakayS3ySOQSCZExEJ6RaRd5VAV8YpAGFFo9Z6ihW3yQIVASQ13qWh43xUvWI+ARecIC8momo7WqrNNzK2cD5AmjOBfmxlrJFWbq45yY6Ibs4i5yQQyYDVSOymt7hWw3hD5AUJD3tm8RaGqo38x3HGMPsgMbiEtYx/2+4NI+v9poUKgpNYpMJAusj6PfD7bSoZZSkFWFiXUlAV4MgN1w09J66m5dXVvYMhWBeEZgMyCZk7Atr5L9vFX37zLLjqHsLm5jrJQFIMTF2lDQW3Vfd3vPUFzT5ISdDxhKNJvosniLidJQ3Yh/COjZEZfrBuU9LOZk8C8gixBmFiugkomFshj5A/sm8C+BEwu29P/xtIqqUp1wTCn1R/CUCQhUI+gi0mz0cueA8CEMvYRdjekjwOzk1m3iEodktBe9z4pfB4T1chHMNmNJSMIA7HcxLGZzXbJ7P+8uNd8Z/Im+/5OTRRLi7J7BUlpd/5B/YH/y+La5Sk67VCPoEtJ2gjpGN7P4LW/f+keG1r5lws3WUFwl2hm9I3hDYvd1L5n3hyZ22jX8gE2omGi1Lq+GRtCSjr/gOQqn8X6SHsGztY9gmk7ExpBkBCQ37kq1aDTv20WAhMHFYIuJcvGT+Nm6YgkcVmZl4AYyGQtoJ4fLwHDTXKaBeTITcSN2yNOvzz2lM0HsOYQ30uYyN36siqooK2EiXjtVrzNgyKIgYaGupCsjcFXX75rlQhQRkqIx0vQfAEpH0UEMP54GbK15c+PPWPuHj5m1zNivwHKVuPA0hDkBwgFIQIkp/ne/zN+m/172UNBXrpNBNoZ2KxEIKphL8Lvoh5BBaFheUd/eYwGMfQYbsI4hFm+ffEW8/6x5+3KnkDVTRj4nH86f4v5lU0/tJvAbO69bGv7qfEHRMUKw9yIFQSg1j9KQhdPgHWGnru0za4/1F//PKlWUpS86bRXoEJQMTo5uvDLAWDUMdgYbjaI4TF7/MpeAH5IWIh5ByICLggCk7vwFBjF3zZ0wr6P5C60W7QuD1FUigNFAVmVj6ZJJ8VAh0AVAKOWh2EjMctNlpKQxc4EVwTofCzmxnaS7AwGVAHxWPYV9i7vzPsRjuWwUL/510srY/XU+rOFJCuFMvnrp9cdtgllPAL2Q4a7ho/ae+A45DhlSQwVgerRyogiAp0ecRcd9QgqQNaGjRE65ZRsFo8xx5Cfmxu1ISBG+b++73H7Pu9xYNh5nxh2F/7megUiCjOmEVqiemdz76Rhb+N7h09aAbB/rzdXeczewkwGA4RBQkfA5xH3B5krQBiJxeW6eU6AekPFRT0CpdCcnl1vRvum68Z2fMl4UxZKdQ2hHgwLewxg3AXX0DPKR0xkxI+R9oaGtve9ZQ031Trb+960j6nk4fMnFhp7CAuyLMTHdr7bhoe48Vw8Au4REb6PqqNbhk9YEcBzODp7VeWSwFFQEVD8UCFQ2jJeW2dX68SIMmqR0kruZVVRRv3HalfZx3ZxtrrXgPF3Sz/xDmTjdy8S38eIs9sXk9EQAww4u4bJRvJ4A7IWEMcitz3bz5jPvPFT9nXWB2IBub3956yY8H2sMEr4CG9j37rlPQm6kU6OPNOmCucibbiTaGioAmQ9yvM20qMnt9h7jK/3uxEBDC7rCh2d2Wzr+6nyYSLYy5euMu8YO2IODJ5ekdwl1g+M8Hl8dPZKGyI6VVu/VNPP6/y9VYdh4xsSyw9N7luqJtrUO78USnpsZoNdRkKXi1A6TdEETD2CkpOVCDDj1m+k8syJHXbVzon6yJrdxjD8QBiG2/+duMU+v2/3j5cmeR2eagjHzuHxpUQxS0CT9MXA83kiAhhtwkTbe9+0gjFoGu/ndQTl3OnlmcouiEBjv+Eec9/Iy9Yj2NbXqBMfMI0lo28bOG8FSpLG3U4WxkivbWv8+lQRUCEoIRj/rL2Aa4YaC8h5v4dQDwnXW3e+am5ed9K+hhgQ8//R1E5bOUQs3v0/6vNZiZSELVANRJKXuL7AAnNCY5+Aeft4sGfWxvn/8ty9Ni9BgtiP/TtOW4PPTZLGvJf8wsQiYaFF+xgvI+stMctEEY1SVSnytdbQUAnJUgSk5lrmBMgKoJSMspwDewXIxCvi+IRaHp/au2KVUHIDsvyDrDWEtyBCwf8x4n9o8hbzK6NPW8MPY2vWLIkDRhvBkV3EBEb8bnUQSJKYUBNexT/WvZJfH/uxfY18gs0NWPEZNY9e3Gf3IlAxUPKk6IKrHoGyBNU0MvFmsj5ih7uGj9iQzPm5UVNb6POdfetdKprwDx4CyzcLPEcEZI8BQjfupC8MPCN47gER2NRLkhdRWE44IxAYfpLHeCISmuL9vIaYiAiw61hjeQryBLN1MegzGwYuqQgoigf1CEpElp4AIrBjuBG62T98Zmkk7weje4z9dy/eaGp1Yxu0KxZloiR93QXcvLOF8QDE+Au8xoYxvA8DjzEXmMj20SsPWtHgPTKZ7NDMVmvomdfALGbmHkh10cm5K81/vHXAisCJqQ2lmGWaN/z+Rd11rQoU3SNQISgBWecD2iEGXSZ6Mbo+NbfBxv1l0pYXafgPHXubXWsII42B5v7uoVes8aakExFglO9dRgIxIIkslUWAJ0CYiKoiwjzMa0Asnq9dbcNQrELKPcb+E1d9x/7PP0zcbj2PsiwzoFSPoosAaGioQ7Qz7vxdbp3AnXSFsScXgBeACNx77ct2NrFXBGQjGjwGF+YOsEooy01wjzEnNAQYfKp9uHdviADegAvPqS7ie1nAjgog9ipgYboDA2fs8hWja6bse5lTgIhI+ElFIJhunmCXNWUQAVCPoAO4xt2voeRp/CkTJbRD2Z/Ezr3rtMsicHgGjMSfvLTbvi7vkQ1kqNzx8vjx3XUD3sg3HJrZYo31nv6zNv4vyWG8Aqp9qO4hnIPnICEfEQwQoTk8zXyBqfrfG7mDPYNnl5a88FvOQlmG9uZtX9IGlHQpiwiAegQFI28PYHK+Mep2E6jeddoxrsTmP7D7kB2JXz90xtyxrjFhi5g/s3fdyh747OGfNN9/ZZ/dQ0DWDWLVUbwCDDwjfpeaaZSL8je5F0MvYOhlSeunJnfZeQrcyEGQ0+A1ZRnCYfxubOQjRsmvfXVCBDimKlMmEQD1CHIkbyMfBgwFy0dgDOicblUQjfnfjh2wAsAexIRZpN7fb1N5qna2bTttz9PdeB5PAm/A3UWM1xAIKQ/dtKbfHJtbtKLynYkb7dpG7GkAh6e3mJcvbTYjfTNa8ZMRee/WVWUvpGwiAOoRZACGsIhGPwjq6gERkGWbpcxTwjqM5lkwjvkBx6f8t4VEBAAv4emLO+xj4DOenlg5WifExOusC0SIiLAQ8Nqm/uVlqxGB0d5pc83QRNeJAAYljFGR9ySZ1btl4M3mo+whJ6GhqGKhHkEKlMnoAyN/Er+EWjD+TB4bqD//oxsfar6jcU6IgTuKD4JafmL+rD3EEhAPXdplQzWtwBNhXgIrg9448Lr1Ch6aPGBzCKw4erq23rw+M6ZJXgcMvtvWRADSaH9+mwop0Qkj3EVEPYKElE0EAANLp0cEGP0zeYwELXA+3PAMqMkPA+EdRvUsRkd9v6wtBHyOH5R4sqrpP43fZit/KAnFa2BxuuMzm82rU+tVBBQlJ9QjiEEZjb8XidEy6mfWMOsASXIWUWAPAvEYgqBaSKp6GstHD5oHz78zlttPZRLfqaNSpcyoR6CUAgQA3j76im20tcV+81rdQ2Ai1kuXr7FewEdv+J4VgVlP1Y4LAoIIsLYPN2CXsLixX3ZAw0tQ8sdrvIK8OKU1ZRUBUI/ABxnxe3/YsnsCbmUI5+aeJzOAWZmTZDDiQJK23ehclo2m9p8tJdvlBVrhrViqIu41LzJ5VxBViVa/sdeeFImu9Qj8fixec193n/u9v0yQnH3b2lftSN7bIP/hyO3m4Ynrl3ICR2ubW4qAlJAyF+Cx6avNP771E4lEAMooAlE7dtw2lJcBEW/xnpEX7b0SnbLaia4TAq9xd29BtPpbGcBwy9ILbgIYUSAMcHhmqzXEVOvgDUjiOIiJ+ZVlilUfyQeRZ7vIQwzGZ9fa6iHagJI+rq2RtpNnG2pF5UNDRbnQeSPJYAz97aPHrQAwancNyqee/SVbubNr+LwVCsJCiAKLybVbqsFWG80N6ASvCqKlpJ0hL8/Pj0oP5bpVBJhYJElbSjARAb9R/qdu/qZ9H5PFmMUr20iGoQoigEekrARjxJwSJX86aa+6NkdQZVwDTViI5ZlZLdQ74mDZCJK0JIa/deF2u7/A+OzIqjV+/CizCFCqCm6YrGrEHV1ijJhYSE5JyZ9OiUFlhaBbvQEvhHw+vv/fm89WQrnm7sGztnyUTVuAapGqx4hlcbqkCe4ik7T9MyDIwmPS0tT28Nvlbb8qJwSduIhFwG8ER56AOQHkArx8/oX3mJ3D43b+AKN7YsKIALF/1vgpWtgkzfip5jWCcdcreu7SttQ9A0KVSdZE6ibytGMaGqoIjO4x3nQy2WiE+D+NiVyACyJA+Iek8HOTW+1rCAD/28+s4tr6tpVDeZO3uCM8aYpPWWBw8Pcv3WMeuPVrZqSvZlemjQoDkFbGXoU4OWn3h8pUDXWjFyBI/fe6vhm7Rs+Dd/+NvR4Ysj/80Qdt+GfbwAW7oQuQHKZUlBEfnRIRQACA5Z9lV68y72PLufu1CUITrdYwEuMf1J6CPrcqUDHEQoB/fd0+6w0wIPBbcjwI/p/VYqP8j5KMNAYslRCCbhaBdoQxXBIGkv1+8xqx5WFUo4iZdKhWx5THMXca2WqUBQDJF1FWHCWfUuYBRFmRthsXDQ1VCBqD1yX/3R9+qPloNRJCApabFk8AsthBKmljjQrXIk0RgKqLADAgYNMgRICRfSsRoCrNzSNEueZKcSiMR0AHozNKR2tnNMrcIdMaMTGSD7NfQBgImdQWeu1x4d7jGWS9DLT7e2eBOzFKJth5cdtZNxj5sASF0LphTagiEKVvtLOVYSjELyon3A0dkR9t37rGFoxxYASGgSOuz/LRwGdyc72BKGV6tlJozdwKcUIUsibL3xuxdSdG+YmA4g8DDBGBuFVDrrepRCMNwx6VQngEfgZBLkaVxCHqOWHMrx68aEdgMhLjNZaMEE+Az+Tz5F5AMFgTiBExAhEU97//hVPW9UcMKB/V+G6DTo18XS8mb/huxNMNEZYBb9uvAmIroN25ue+Ni/p4ORH0Y7Uaub/3yhdsxQ/I8g+IgEz4ItxBVZAfzAVgTwHwEwGOhxsigAEYrzU6v4pAA6qnOgGT+6IiVWNJ6VYRSOv6dYI0RAA67hFUTcnTgNEohp+OKQvAsSzCs5e22xCH98f3XkNcezaZccMh3pE+Ln/ZOn1U0jAS3UIWHlBQniFN0vqNo36OeNCdJi0h6KhHoJ00mI19E3aaP8YfEWACWG2xEbfnunmvHaN6QARYQ8cbE/eO9EUECCFhBNJqUHnDsQeh7Ss87GOdNmmLgF8bbfcbe6voXNy2E7Wt3LHuWPNRNeioR6AddTUYdESAiTyU8Z2ri8H/vOUbq64Voy08hsm5QZt8Zjnpn13/Y7vLGNs+RhndSYdwcxFloV1OI6haSFE6Cbv7TSz0mdF6H/7Yznc3X23gCl47G5nWAK5jQpCWCMiFqIqo4HIyvR/knMSYSdKXe6b/45p6E8GNapn5SKOxTiYoW5Hktw0jaHx+VdpNXFoVEiidwWvc27XRNMSgPEO/AKrWkTHunJN7XmwcA4z+gY4bFJ8c6Zux68VEgaRyGo0pbbzXIQqIQKuwAFSt7cRBRWCZovSBTrTL3IUgSecOomwdmlG/H0ENkQogvAJCIOQA3NimtyPzPMronhyBVCblVT0Rt8N5r1u7WnWuBSE0rllZyMMYtRPITtCqei4vimRHotjJKO8NovQeQRFxDbUfMpp3DRkGIOjHJFfAgnIgk8jSgrkG5BRgcr7hceRBHIPHrmguYUpdbxo5bctty1IimLRDh6GIXkDW1UVlJUx7oC8lHUDkKgR5NPIi4I1NB41cxZAxGvLbM0CgwodVRb34jaKijKwoId3af2Hps0d6G2JTVOIYMNbK4aYJYyUPkhrkKKQhAIJ6BBkioYx2I1cMMFU/gHFGODDohG2A0AaxfyDsI0LDrGNv2CPKyIr1hJivIJ8tu5RliTTcbhkUKN1F1u3aa/z5Pu8tDrlVDcU9wLwhflpb6LMGFWOcxGXFoIcJX/jRrurFe2ziCUQ5XllSAPA68ii1DCMESa972ei28+02aPNue/c+D0PU/2n3fumHQi5CEPWkO0lYY9jKyIf50eI0BiGp4eAcyQfwGXkbIWmAebYJNbRKp0jSz7PEKwQaGvIQdkTsJwJSjdHqh5dEctLGkaTyQ0QAusFAqggonaCdCHiNsUurv2VB5kJQRDVMQquKIElmeo00I1Ju0G6SUxgwbHxXnEqYdqPjvBugH5IbUapPJ0pZ4y6tHRb6UBgR8Pu79L+87WamQlA1EQBZBVQQA+/irW7B8JLYTRu8lzCG2xUi9hlo1fmy/s34/Hbfofvddg9ZlrIGGfw4iy2G6WeQ1JBn1f84rlbnkGmOQE4q6cUpCrIUg19+gHMMOj8Mb5YN3g8qlqi7935vGI/g08/fV/mVSZXqwiKNH73he81ny1CiHTTZMshItrNZ7v9FtW/e78zTPnq/OxchqCpcTM5R7lvRzgCnDSGs2cW+VUtRdEKUFCVPxMhJ33Rx+2nSKjn3s8tm67zXRYUgJEEj7DCEEQpFKRJlHDCIcfuHI7ebv75un30MD7zyA/PJa9/RfLZMkn5Z9j7tFYJMcwR8mfcLywoj6/X92SaZ0sQvd6EoVUXszN+/dM8KEQA/EYCvvnxXLPvE/xRRBIJWMAhD5vMIyj4SlpBO3qEdL3mO0Gjo9z/2O7EnwylKEqKGbFzDnLWRTvL5SSaYpg3n4aLzCNogxr+TIgB5u+k02FbVRUp4qF6p6rUMOwr1ljrLjnp+K/Eyz8WvTBvj5TVg4BpmPyNNaCgu3u+LKwKUROclAn927Mnmo/Bo+agSSJbi49ehq8rE3JC5ZvBiacQA75c1rMIcr6xT1Q5Z2Rbh4LPZpP8Pjjxr3j/2/Kowpt2ru78x8JK/SXuhoi0KfMdgz3zzWTzku8vSZv949x3NR+HJLDRUBRFot96PooTl/hdOmf/35g1LnmVQmICR8zVDbxWifFfCkXg0o2umzOa+SfOF63fZUfyuwbN2eW/2ynju0rZIgwYM6udfeI/ZNnDBbF7TuB537TpmjTwLIf7ChoPm8PRWO5+E9/7bsQPmz/febN/HdwdtyuSHbAkZlCfg84tiq5IcyyeOHLbXcmzNjPn4rnc1Xw3GK2qZWLmqeAJb6w3VO1oJi/dCxyGNz1CKwY8v71gRXgwKEwz0zhdmDgfboQLH8/TELnNxvuEhvG3tq1YUtvVfsDfZOS8M4mXIHhhfPPduM7PYax469jb7PfKdMqkQWyIiAGFFQEJWfiKA0RSKZKuSHAsiwD7ncUnNI6iC8cfw/uGPPmi9ABkNdRudTopXFUmAyvwO2WSnCG2MY2MJ8nY72zEa/9D6R61hlTj0odoWa4CevLS7pZEW75o+RrUO4F0I9LfPvf1L1o7IAMjPpuCd3Dp8wjw8cX0sb72o+3MHQX5jpt5eEMs9/ZfNb+14l/ns8Ufqnthi/br3mHPzvUu/x8WFofp73mzpAQneQWYqHkFVRMCFDtqNa97IstRKa8LEz12kCoZNgDCYjHyjjKST0iqpG0YEYKR32pycv9KGuTD+GJ4Hb9hmtvWNWy9B8CaGQUTgLw79rDk8vcU8U/eQXK5b+4a9bycCeA3PTO2MHbLd2DfRfFQuNvdeNn957l77mNDPubp3drC20f4egFAM9sxaEbi4EL1dJRICfqwqiIDAuUgDo+M8fXFlY80Tv86UByQ1lfaI4YqKhIQQg7yqSKDVdyECYYSN983UDc29w8fsiJOQDcs5PD6114a+SMzCruHzK4RHjDs1/uQU+ByvIb937Ys2F8B7gmzKB9Y9b0e+ewbOWjGKwm+/eNzef+vGjfa+HW74KG/cKie8gYPTO6zxdz0uSQifa25d+6d7bjdn50frtxF7H5XYQlAlAaCK4ZPP/FrzWQM6Tp4d1UuSqe9JCOs2ez2obuPcbPwJe61G51mBdxu0CBuE9U42906YsTVrzJ8cfdomYjHKGPc71h2zHgLfwfMbR8/YfkU7wVZguDfVR+NiiL0ljhg2hAUPA7zeuHghvA8PZE9/eCH+u1cfqb//bPPZMt84+Zj5yslHm88aIACc22f27m++ki8c62jdK+f6cByAGPgxMT9sbhtseGKI8Pa+N+uewqi9j0osISiLCEitMriPvVD10O9JtBArbzcqz8oYxk1QpwHn1OpaCVUaCMRh9+BqwxKWgTXzkUNLSTk+tXEpCe3+vhjYsDXu/B+lmF+5eIM5OnuVDU/MmD5r3In3U0XEd/CcOP7H9/+7bSe/99LL1sAPmjk72uW2qXfa3hPv9utH7gq0HB//L3FvRr9hS0Ix7DOLi6tKKvlePxAAPr9TcKyEdxA9zpHjHqtfKxdEghvXnDAQ1/fU3HpbMYRIco9Ic325D0MkIeBHLZMBkH2AYbLeaL3QwDC67tIR0klImLYblWd1LbJYsjosJMsp4Ss6nfZIGHkxUIhj0Pl988wPAG1ZjP7+oTPNV40tCw277Dfe4tHZzebA4BkbHsLgSGgCbhs8aUe0jE6pYpH+IUs+MOLHcHH72M53W8NOyKNdP5Ljk9ATYCi9XgV4QzrkE/guL5t6e8wHt99tfmP7Pc1XOg/ihLeFR0CIR8RLvCSB1+VvM3Xx5friGZAn2NZ3yV5TzpnrXFvsse9rR+zQUBmo1S8Mhp3OKlUaAhUQuFwkRy/VO6XELINCI3kanriJsDRgv4UyVA11ekCCIVrXN7NU7hgF2tuO4QvNZ/lhE7v9F8zZuZUeZzvPV0JZiAiJ3gMDb1mDReXKtr6V53GodoX5wO5D5uyCv1f7v15/X6wRNyJ2aGaLfSwxdIwh4SeXo82yVIHJfH4w8i4aXE+OC+PNQCMMUlor4aOjs43kMXCd+cwwhCofpdOJIex0B2yHW/4oJWvSkMX9peGPz1KzPGOTfmFHRN0AotmNZbNxoK3tHB63CdSo4i3/O1p3+6X9SUhQ2m+avwX91+27GHW+FwN7anb9UtjIDzkORuAYXwwxhmd//7x5fGad2dw7aW7d+ar5/iv7lsIZfjAo+/Urnlia8IQRD5u8BW8/jkNV2jf5A++1xhtzBY7QHeC5wcm5K5aEwzuwDd16P/LEh1cIAmQ1SubHigudiAbDiP/1mTHbuaThSEOiXA5oECoCK8k7ZFFmaGuE0WhnUdkwcNn+75na8ghupHdmhTdG+0zSF1pBSAjwbNrxzrEj1vjLKB8DdHLuSnN6njh2I3zKTGFKHINEAO5cd3RJBIBJalFg4Ja0gMNPBPzWNSo6hIS815pyUow/8wu4iQBwzY/MbVwSAT9CC4E0UHdUkdQ7wFgDxtr9MZhYwmuM3HmPjJTaIcJEY3ltetSGfThu93U+j/BPmAaVldC1o1PfC2HXjikTWV5P2tcX7/zb5rPwUArI/47X1trROWWYzCrG4BLn5sZjvIY4cM7uebuDOO7ZwYv7Ry/uq3vHwYUReAGIxVffvGupkuZ/nP75upGZNgdntpsDA1Nmd1+POTB4eoWR98OtxEHgXNELw0AzQRzWHoSBqqEgbw5vqdO4v6ELXpgXPFPyBI9NX20nno06p9WuCiq0EGQBnQDDTEdyfwwaLY2EjiEdhvfJ6EhG9uBt7AKGnobD/1EaKoYfgQhLUqErI+oRRCdJO8ELIG7Pkgu1+V6b4KO6htJAkoa1eueOi/e45Ln7Onk0+tjbR1+xfcWFfoZhoTrlp0afb77a6FvfutCI8w+YXnvPrFfELCxxwjNLk/IiCkgrzs0HR8a9SdpOENS2/GYOH6tdZQ5O71xKzhMm+twb77OP29EyR8BBYGiDDsaFEQU/lPf9QYoGfp+L2qf5Qycl7PknRc47r+9T0oXfj3DPhv7JlvF2P9y4tbQDjDIFDkzw8ytgwEgHebVR25D0Ue//4JEgTIR8GF0yygTKFd8z/IY5VBs29177sp0Itr2PgdeiOTW3zlxcHG45Am117O3I0j7IzOVOEfQ7xIXfybtJjyDfJQQKQdSD4YN//6nftMvNhnGVvZ+fpHF4cTtWXETYFCUJnRjYRBUCwTVEzMQ9MHDGHJndZO4eet1sXDNonphprHdD/BkRuHNw3nzi9LvNz1z5rPmXN282/3XDk7aiiJGoX8lmEXGNP+Lrzt7tBHF/u1a4nym/sRdfIeCfohyQ+96oDb+V0c7iooRFKo4UJQ60n1vXvmqO1janMsoMM1BKo79QycNEsMeP77aTvjD6iADUFufNuYVZWzq6aespWyVEOagcF1VBtwyfMHv7z5nvXb7OvhalKkhJDxE1t03wOIhASxdFBFyijn5ajdw7JQLQjSKAiFeVVp0gC1jCnGUNgurYo+InApyTe15p9Bcx3FSc2MlNPY0cxUBPvxlZM2T2bG9MRjt6couNR7OUhEAIi1DEF87da07X1keuCooCA0jEMS4k6IVWS28EJdE7BX00TFsWzyaMCEBia8cXJW2A3iRVGPLu2FWHjhUk4lW41nkPKqQsE0GI077bwW+SRt/zg8/cv+O0HfUP9PSaoS3Hmn8xZvrMbrNhzTrrKewZPGt+ZfRp60XIjHwgAc1AKsuQGAPIDf2XV3xvFO4aPmKrgqjOYr2koER30cLD7jVt1S/dQV2Y/rsqNJR3hwGNxytVgpHqb131iC3xY+IVlTesCElVR9J5KyIAYREjELVfk2gkN4BHMLG4eq4BeQDE4NQcS0YMmS+fe0emhj8LEAIWrzs0s9V8/cDVzVerRRgRgI7HP+g0sp9ppymaG6iUk33rztpFwJh41QixzNgVISkTzcI7aAUCEGdwxzwBjDxMLLB0wVp7z2tMXDo0u8nWqzPJjOUQ8hSBuCFMqqBcWJ+HZRjYMrPbSd0jiDpiUTqL3++lv2EymITFzl0fWPvK0oha7jGozAp9+NL1vmWhCMX1Q2fsipNsDcnSzcTd447s40LI5ZfHnjKbepdX+WQdIYw+k9CuW/taXRiGO1pumQRW5SxLZVNSpO20IvXhSdSGqqPwzuL3e6kIxEOSl1TbYMDtAmJm2ZAiBjLt/1M3f9PmZWj/MrOYG5MsCVMwievF6S12HSAR5rx/F3cdfM7lmemd9jXCuCSDy7BKrR9c524RgbB0PDSUBmEUT1km6vXS6xuOa4Ya2yBSWTPWM2XvMaBSeTO29YTZ1rdgcweffv4+m/DEqJI3+MHFvXaEzRwcRuNccyo/qOLphDCzVDWCxvETAmJFTI6TNYpIDm/qn0w8VydLggaYiG5V8wFJKESyWFHKgMyRwUj79RNeZ09eDCYlieQE7h56xZydX2tn55I0ZkRNcvXxqT1LYRUMf9Dy5xBmDkHaMA+CiidwQ0CcF2LAa1C00JB3RVNG/+QA/vnC20IVpFSxcIV22Q4VAkVJgHSyMP0GI3V+btSGVBAUjO3+4TOmCGvacB7ecyB0ZZfKrht+17hy3KN906tez5tWk1GBqiBCdE9c2tNSaMuE16hHsdetBGGVEHhRYVCUlZ0orT4hsz/LBsfNAnlQ5NEzQoDIyii/02sJJaGVEY/aHv0+q60QgIqBItCIuq09dOM5lx0mivktfFfW0E8rIXAJ005jCwEUoSN4T0A7p5IFVWxnVYx9ByHrhPnlVniNPTeKnOj2I6wQQKv2GvQ5oYUAOtUhOHi+2z0JFQFFyQZJipcRVk0d6JkNXH65jEQRAcHPPrb6nEhC4NJJQyzC0GlUmBRFyYo4AhCX0s0jKJoIcCwqAtUgz46n5AOVRRA0r0BpEEsIOmn40vpuaSBRwFC4xkIFoFro71lu/JaTllwA296SO1D8iSUEVRg5RU0WuefM46yMRhWurVIcuqk9sfS3u8+AC2W6utFUMHplQuB2JgQgSxHQUamSJp1qT3kKkIR9zs1Wd2OlrIktBN04clUjrSjhCNNX0rIhu4bPW0+AEb/s9+CGieKEgbuNwnsE3SY43SiwSucpa7tjnSaMvwiA4M4gLtucgU4Qu3xUSHuUHLZBVm107p63eh5KmaEtaxtOTp7inNgjSOtg+Zwon5XnRVIUJTyIQNT+HJegHd80HBQNTRYripIqeQ7SvIv2sdAcS09XIRyUp1eVODQkyEHTCGREEITfCSZpPHlesCxwz73s56IoSnrkJaqpCkHUg47zP+0ooyFVIVA6SSc2vlHCk4cYdFQIskKNqaJEp2yLzXXTACpr25pajqAoIqAoSjzYL5l+rH25eGQtdJVLFqs3oCjx+N0ffmip/6gYpAPVS2W4llo1pCiKhUqbsqzSWRahKkv1kgqBolSIpIacXczwCorsWXtFoIjHKsfIvdfLKqKIpZYsLgJFbryK0q24xjAJrQxoGfq+HH+SY81KRNQjUBSlJWmEi5IasLKLgFDUY62URwBlahSKUgbSKiuNMyL+xJHD5r7dP24+a/D5F95jvn7g6uazahDmGmflDYB6BEpXkWVnqiq1hd7mo2QgAFFEgN/KKwKwqW+i+ag67Bwebz7qDJXzCKAsXgENXT0YRVkJewls6p0wH73he81XGnR7X8lyEFNJIYCiNxr5UVUIlDKQ5zIU7DEwXltnK5iUZbIUAg0NdRAVAaUs5LkW0adu/qb5q5/4cqaGT1lJZYWAEUyRURFQlNW4nrL0ERWE7NF5BIqitARDrH2r82hoKATaUBUlfVQEohG0Y1rRqYQQaENVFKXTMPHugVu/lnjkTtWUH1nauUqEhlQIFEXpNK4AYJPiThJrZ8+yCBGV3iNQEVAUpYhkIQJZUWqPQEVA6TbKtouYsnJexC8+f948PbHLbgLkEseWpekZVLZ8VFGqiIpA+XjklgE7LwImFoZXiQBkEe6JQmk9gqJ7A/yw6rEUB/09lDxxDbu33aXVFtMUD/UIFEVRciSpCCAAaYoAlM4jKMuoLi3VV5Kjv0X5oTRT1x5K1wtwKYUQlLETq/FRssI1BtrGuoesRAAKHxoqqwgoSlZIn1ARUNKi0B6BNnQlKZ32zNQzTA8tnW2QxUBTk8VKpem0CCjpcdPI6eaj7gDhywsVAkXJCERIvYH02D3wRvORMXufGGo+qg6cExPOhDy9n0ILgY6oFEURTs2ubz4y5sid081H1YCqKM7pWzduNPe/cKr5qj9ZDC40R6BUCo3JVxPCJPvWvWFevnRV4fIEfgPWPNpgmgPlwgqBdmYlKioC5QLj/sFNT5rP7N3ffGU1P/fcRbOt/4LdzH7G9LV8bycIY4yzbJNpiYHmCJRKoCJQHsR4ycgeY++XGCVmvqlvwgz0zJrB+u3w9NZcE6jtSMsIFwH1CLqUKhlOFYFyc8fBBTO4Zs4M1G+M/PcMnLWj/3Nzo+aHE9eadX0z5snblses7Eee5mb6UdpPEuOfRRtNS4wK6RFop1aioO2lnIgRw8ifmNpgJuaGzIvTW8yXz73DfOPcHebBG7bZZSVcEYA0RaATcN5y7mkZ8qQU0iPQjq0o3QHlkufrI39ADMIkggkPpZUwFkOch0cQBr/jyEMsCucRqAgoSncgG71Pzg/ZNfv9jLufEZT38f9s+lIlvOebhwhA4TwCFYJ8STveqihhEAP3kSc+HHl0jwBsGXjT/PcD/2w+/fx9Znx2xDxz+0Lzr/mRl5HOg0LmCJT8UBFQOkmcEA9G/9s3jTWfGTNeW2snZGVFlQx+EIUTAi56N1x4JTpJ2oW2qWKB55+G9//dm9faaqPr1r62FGpKE9pNp+L2eVJYj0A7riJIW5AOGbdtaJsqPlF+I2kPsjQDngKhzjRJQ6zKQGGFoFt+AKU93ragbaO6JP1tJdSpoh+NQgqBdnQF0uzM0qbUQHQHakOiUViPQFFADbeiZI+WjyqKokSkagMU9QiUQkEHUy9AUfKlEB6BegGKUhwow+zEBK2yUMWBinoESiFQL6A4iAhkOUkrS8K2JW+paTe3QRUCpePQAdUrLB6s/FllKDVlLwTZ/7ib22ClhUBHmcWn20SgrKPsskG7CtP/Zxb77IS0sBveVNWmlEII4l58HWUWm24TAWCUXaRdtqpOO9vBEhXAmkfdLNIdTxZ7DUE3Goduwu2Y+jtXl07+zu2Mf6vjIUw00lczD9z6teYrK9/f7rPLSqE8ArnIWVzsqv6AZUJ+AzqWikAyityevceW9rEmXU+o1fEQJvJWTMn7i3zNk1LIHcpc0jAYQT+gGqPs4drrdQ4Ho1EMUdnJo7+xIc1rM2OrrldUY+0eU5UNfTsqnyxu9eN28w+fFyoC4amCCOTFeG3diuuVJO/Szk50A4X3CCCsMUnyY6rBUrJA2mTU9sX/5dkm4x6nl3Z9MK1zwvDfNHLaHJ/aaBPwMgkuiQ3oZkohBIJfI+rkD59nR1XKh1/bjNpmMHjvvfIF88OJazOr63ePM26bjtIPk/Qb2abypctXmZ3D40tVPyoEyShVaIgfWW7yXFGqCjkDdt86NrPZDPTOr9iovSglqG5/DEuSflub77X3Az3zZlPvhH0M8roSj1J5BEVGvQPFpZWxi9JWqJBx95Xm+b51Z80jtww0X0mO91jDHF8SYy5E7TPU+UsYaHJuwDenksZxdSOVThbniTbActKJ3y3Kd7oiADx/+dJm6y1008Q0zlVCY4SA8AhYHkJJB/UIMkC9g2KAwW31W7gGmfe1e38QccVEvlMeRyHtFUK91yKIuOfaijjXvFWpbRbHWHXUI8gAv4bofS3tTbajUvXRZNBvIDcv8lrQ37MgyfcQGskKuQZ+t6KAR6Ckh3oEOeKOfOhUcUZCaYAIsLZK1fFe46iGLOzvk5aBzKM9eI9VvjOtc4hLmufe6XMpIyoEOeNt8EEdM2u8SciqkYYxCPNbpG108vr9XYpgOOOc9x0HF8yTt60OaqgQREeFoGBIh6AxZ2UU3v/s5aX666qRhREI+h2yMjh5ikFRjKb3nOO2/6KcT9nQHEHBoCFLJ8iqUasIREN+k6w+P4i8v68oyHlHPf9uvV5poB5BCchzhFhWusEIZNEOinLd3HPzHlOY81YRSIYKQQkoshD4lfHRKfM45m7r/Gle06JdOzm3VsflPX81/umhoaES0MkG367MVETAfV+RhUupBioC6aIeQYnopIHF0I/0zqxa+MxbisoyALXFxrovQRN+wqKdfSVp/f5Fu65hvAElW9QjqBDtRu9JEQMPfBdhIe98hPHZtVYAVASUsPBb6+/dWVQISoR0Fu6poXbBMG8YuNx81hoRDJYpCAsGX4w7AsBa8DyXz5DjGVgz33bWdLuOr0bBH70uSlaoEJQMMQavz4zZMAxgjK8evGhemx61z0EMtBh9jLeAUef1MGvV8H/yGXKPAEzMD1mDv6F/0orAhbonIFR5olqnUTFQskBzBCWG2Cpr1LMksSzR6wfGvLbQF3pZCXdBM/dzeb2/Z84+fnVqvblmaMKuA79r+Lz59k0NYWLdfP7X/YwoqKELR5J8gV5jxYt6BCWGDv2pm79pZwoHiQB4RYCRvYzuAQMuzxENDDj3LPOLYQcM+67Bs2Z2sc9O62fU7zX0HAOv4SmoCBQTvcaKHyoEFeCPbnzI3mPQ3RCQGHdXBHgPz9nmD+POezD2hJZgpK9mX+PvM3WjLzs/sdrlt27caD0CPkPA+BMmAl5HBHYMX7DPlc7j5mtUBJQgVAgqAp38r37iy0sbdmCUawvLVT7WQNcNvFT+EE7CuCMKD9z6NTvKRxh4DVFAXMZnSUBfsp8niWLeh/F3DcxrM2M2T8DreAq8xxULF/f/XNRIRSPM9ZKBgKK0Q3MEiqIoXY56BIqiKF2OCoGiKEpXY8z/ByLCLjUAbmzJAAAAAElFTkSuQmCC;" vertex="1" parent="1">
          <mxGeometry x="194.29" y="270" width="109.29" height="79" as="geometry" />
        </mxCell>
        <mxCell id="bDyjh2r6DxuN5JzGMPox-40" value="Fit models:" style="text;html=1;strokeColor=none;fillColor=none;align=center;verticalAlign=middle;whiteSpace=wrap;rounded=0;" vertex="1" parent="1">
          <mxGeometry x="354.28999999999996" y="212" width="60" height="30" as="geometry" />
        </mxCell>
      </root>
    </mxGraphModel>
  </diagram>
</mxfile>
